<svg width="99" height="102" viewBox="0 0 99 102" fill="none" xmlns="http://www.w3.org/2000/svg">
<g clip-path="url(#clip0)">
<path d="M99 22.9379V30.302L92.5227 27.3118L89.8938 26.098L87.8484 25.1538L77.3328 20.2984L75.2875 19.3543L72.6586 18.1404L34.8295 0.674362H50.7798L99 22.9379Z" fill="#F2F2F2"/>
<path d="M85.022 17.8033C89.6964 17.8033 93.4857 13.8179 93.4857 8.90163C93.4857 3.9854 89.6964 0 85.022 0C80.3476 0 76.5583 3.9854 76.5583 8.90163C76.5583 13.8179 80.3476 17.8033 85.022 17.8033Z" fill="#F55555"/>
<path d="M89.5104 50.4426C89.206 50.4426 88.9085 50.3477 88.6554 50.1698C88.4023 49.992 88.2051 49.7392 88.0886 49.4435C87.9722 49.1477 87.9417 48.8223 88.0011 48.5084C88.0604 48.1944 88.207 47.906 88.4222 47.6797C88.6374 47.4533 88.9116 47.2992 89.2101 47.2367C89.5086 47.1743 89.8181 47.2063 90.0993 47.3288C90.3804 47.4513 90.6208 47.6588 90.7899 47.9249C90.959 48.1911 91.0492 48.504 91.0492 48.8241C91.0488 49.2532 90.8865 49.6646 90.598 49.968C90.3095 50.2714 89.9183 50.4421 89.5104 50.4426ZM89.5104 47.4754C89.2567 47.4754 89.0088 47.5545 88.7979 47.7027C88.587 47.8509 88.4227 48.0615 88.3256 48.308C88.2285 48.5544 88.2031 48.8256 88.2526 49.0872C88.3021 49.3489 88.4242 49.5892 88.6036 49.7778C88.7829 49.9664 89.0114 50.0949 89.2602 50.1469C89.5089 50.199 89.7668 50.1723 90.0011 50.0702C90.2354 49.9681 90.4357 49.7952 90.5766 49.5734C90.7175 49.3516 90.7927 49.0909 90.7927 48.8241C90.7923 48.4665 90.6571 48.1237 90.4167 47.8709C90.1763 47.618 89.8503 47.4758 89.5104 47.4754Z" fill="#3F3D56"/>
<path d="M3.3342 28.1885H0V24.6818H3.3342V28.1885ZM0.256477 27.9188H3.07772V24.9516H0.256477V27.9188Z" fill="#3F3D56"/>
<path d="M52.9624 4.04622H49.6282V0.53952H52.9624V4.04622ZM49.8847 3.77648H52.706V0.809267H49.8847V3.77648Z" fill="#3F3D56"/>
<path d="M39.0486 21.9331H15.1962V42.299H39.0486V21.9331Z" fill="#F55555"/>
<path d="M81.239 48.5031H15.1962V50.6611H81.239V48.5031Z" fill="#F2F2F2"/>
<path d="M37.5097 41.22H13.4009V20.5844H37.5097V41.22ZM13.6574 40.9502H37.2533V20.8541H13.6574V40.9502Z" fill="#3F3D56"/>
<path d="M71.6211 27.5303H48.5382V29.6883H71.6211V27.5303Z" fill="#F55555"/>
<path opacity="0.3" d="M81.239 33.3299H48.5382V35.4879H81.239V33.3299Z" fill="#F55555"/>
<path d="M70.0823 28.6093H46.7429V26.1816H70.0823V28.6093ZM46.9994 28.3396H69.8258V26.4514H46.9994V28.3396Z" fill="#3F3D56"/>
<path d="M79.7001 34.4089H46.7429V31.9812H79.7001V34.4089ZM46.9994 34.1391H79.4437V32.2509H46.9994V34.1391Z" fill="#3F3D56"/>
<path d="M79.7001 49.5821H13.4009V47.1544H79.7001V49.5821ZM13.6574 49.3124H79.4436V47.4241H13.6574V49.3124Z" fill="#3F3D56"/>
<path d="M81.239 55.2468H15.1962V57.4048H81.239V55.2468Z" fill="#F2F2F2"/>
<path d="M79.7001 56.3258H13.4009V53.8981H79.7001V56.3258ZM13.6574 56.056H79.4436V54.1678H13.6574V56.056Z" fill="#3F3D56"/>
<path d="M81.239 61.9904H15.1962V64.1484H81.239V61.9904Z" fill="#F2F2F2"/>
<path d="M79.7001 63.0694H13.4009V60.6417H79.7001V63.0694ZM13.6574 62.7997H79.4436V60.9115H13.6574V62.7997Z" fill="#3F3D56"/>
<path d="M81.239 68.7341H15.1962V70.8921H81.239V68.7341Z" fill="#F2F2F2"/>
<path d="M79.7001 69.8131H13.4009V67.3854H79.7001V69.8131ZM13.6574 69.5433H79.4436V67.6551H13.6574V69.5433Z" fill="#3F3D56"/>
<path d="M81.239 75.4778H15.1962V77.6357H81.239V75.4778Z" fill="#F2F2F2"/>
<path d="M79.7001 76.5568H13.4009V74.129H79.7001V76.5568ZM13.6574 76.287H79.4436V74.3988H13.6574V76.287Z" fill="#3F3D56"/>
<path d="M81.239 82.2214H15.1962V84.3794H81.239V82.2214Z" fill="#F2F2F2"/>
<path d="M79.7001 83.3004H13.4009V80.8727H79.7001V83.3004ZM13.6574 83.0307H79.4436V81.1424H13.6574V83.0307Z" fill="#3F3D56"/>
<path d="M85.2144 96.3174H9.61786V8.71547H85.2144V96.3174ZM9.87434 96.0477H84.9579V8.98522H9.87434V96.0477Z" fill="#3F3D56"/>
<path d="M8.00208 97.9341C7.99757 97.9358 7.99326 97.9381 7.98926 97.9408C8.14186 97.5942 8.28421 97.2436 8.41373 96.8875C8.42912 96.8457 8.44322 96.8025 8.45861 96.7607C8.45733 96.7715 8.45733 96.7823 8.45605 96.7944C8.4522 96.8619 8.44707 96.9293 8.44194 96.9981C8.43425 97.1046 8.42783 97.2125 8.42655 97.3204C8.42527 97.3542 8.42527 97.3865 8.42527 97.4202C8.42568 97.5516 8.43857 97.6827 8.46374 97.8114H8.45861C8.42655 97.8141 8.39706 97.8154 8.36628 97.8208C8.24534 97.8378 8.1274 97.8732 8.01619 97.926C8.01123 97.9282 8.0065 97.9309 8.00208 97.9341Z" fill="url(#paint0_linear)"/>
<path d="M10.4303 44.9587C10.444 45.5219 10.6254 46.0676 10.6539 46.6298C9.07681 46.7123 7.52133 45.9077 5.95996 46.1542C6.39639 45.8572 6.62982 45.3218 6.76712 44.7947C6.94208 44.1147 6.99431 43.4062 6.92111 42.7059C6.91691 42.667 6.91036 42.6284 6.9015 42.5904C6.84362 42.315 6.69356 41.9251 6.73378 41.7085C6.78674 41.4217 7.0437 41.4784 7.27516 41.495C7.98099 41.5515 8.68352 41.6469 9.37986 41.7807C9.56129 41.8137 11.3286 42.2779 11.3551 42.2294C11.0453 42.7521 10.7889 43.3077 10.5901 43.887C10.4798 44.2322 10.4257 44.5946 10.4303 44.9587Z" fill="#A0616A"/>
<path d="M26.0262 43.2186C25.8907 43.413 25.7284 43.5851 25.5447 43.7292C25.425 43.8323 25.3024 43.9375 25.1739 44.0324C24.9451 44.2182 24.6725 44.3348 24.3854 44.3697C24.0098 44.3966 23.2124 44.1645 22.979 43.8261C22.8806 43.6561 22.8338 43.4586 22.8447 43.2599C22.8486 42.9903 22.8923 42.7231 22.9741 42.4677C23.1204 42.052 23.3254 41.6618 23.5822 41.3103C23.8538 40.9132 24.1559 40.5223 24.56 40.2819C24.6946 40.2061 24.8335 40.139 24.9758 40.0808C25.221 39.9756 25.4652 39.8693 25.7104 39.7641C25.7522 39.7427 25.7975 39.73 25.8438 39.727C26.0409 39.729 26.0772 40.0457 25.9654 40.2169C25.7418 40.5615 25.2387 40.6574 25.0975 41.0483C25.2165 41.0522 25.3312 41.0956 25.4253 41.1723C25.5194 41.249 25.588 41.3551 25.6212 41.4754C25.6267 41.5392 25.6515 41.5995 25.6918 41.6476C25.7565 41.7023 25.8575 41.6713 25.9311 41.7126C26.0615 41.7858 26.0047 41.9901 26.0184 42.1448C26.0504 42.2789 26.0954 42.4092 26.1527 42.5337C26.1804 42.6506 26.1835 42.7726 26.1616 42.8909C26.1397 43.0092 26.0935 43.121 26.0262 43.2186Z" fill="#A0616A"/>
<path d="M4.28732 99.6861C4.40873 99.5585 4.60705 99.5801 4.77657 99.6083C5.68653 99.7597 6.60613 99.8379 7.52738 99.8424C7.64272 99.25 7.3079 98.6743 7.20004 98.0804C7.18445 97.9271 7.14775 97.777 7.09108 97.6349C6.96135 97.3731 6.6687 97.2533 6.39406 97.1924C5.89833 97.0824 5.12342 96.8884 4.84656 97.4155C4.51435 98.048 4.40807 98.9822 4.28732 99.6861Z" fill="#65617D"/>
<path d="M14.366 97.4486C13.9923 97.7168 13.5285 97.8003 13.0793 97.8612C12.6291 97.921 12.1672 97.9674 11.7601 98.1778C11.409 98.3604 11.1128 98.6595 10.7411 98.7905C10.3955 98.8902 10.0314 98.8963 9.6829 98.8081C9.2651 98.7256 8.81984 98.5657 8.59427 98.1861C8.39321 97.8488 8.41479 97.4207 8.44225 97.0236C8.47461 96.5749 8.50632 96.1255 8.53738 95.6754C8.53584 95.5613 8.56326 95.4488 8.61683 95.3495C8.9189 94.8863 9.65348 95.5434 10.0468 95.5424C10.6695 95.5413 11.3384 95.1865 11.7876 94.7522C11.8269 94.709 11.8726 94.6728 11.923 94.6449C12.1005 94.5614 12.278 94.7161 12.4359 94.8512C12.4535 94.8667 12.4712 94.8822 12.4889 94.8966C12.8527 95.1999 13.3411 95.2618 13.7903 95.3845C14.2405 95.5073 14.722 95.7548 14.8613 96.2211C14.8703 96.2505 14.8775 96.2805 14.8829 96.3108C14.9643 96.7399 14.7161 97.1969 14.366 97.4486Z" fill="#3F3D56"/>
<path d="M14.366 97.4486C13.9923 97.7168 13.5285 97.8003 13.0793 97.8612C12.6291 97.921 12.1672 97.9674 11.7601 98.1778C11.409 98.3604 11.1128 98.6595 10.7411 98.7905C10.3955 98.8902 10.0314 98.8963 9.6829 98.8081C9.2651 98.7256 8.81984 98.5657 8.59427 98.1861C8.39321 97.8488 8.41479 97.4207 8.44225 97.0236C8.47461 96.5749 8.50632 96.1255 8.53738 95.6754C8.53584 95.5613 8.56326 95.4488 8.61683 95.3495C8.9189 94.8863 9.65348 95.5434 10.0468 95.5424C10.6695 95.5413 11.3384 95.1865 11.7876 94.7522C11.8269 94.709 11.8726 94.6728 11.923 94.6449C12.1005 94.5614 12.278 94.7161 12.4359 94.8512C12.4535 94.8667 12.4712 94.8822 12.4889 94.8966C12.8527 95.1999 13.3411 95.2618 13.7903 95.3845C14.2405 95.5073 14.722 95.7548 14.8613 96.2211C14.8703 96.2505 14.8775 96.2805 14.8829 96.3108C14.9643 96.7399 14.7161 97.1969 14.366 97.4486Z" fill="#2F2E41"/>
<path d="M14.366 97.5995C13.9923 97.8677 13.5285 97.9513 13.0793 98.0121C12.6291 98.072 12.1672 98.1184 11.7601 98.3288C11.409 98.5114 11.1128 98.8105 10.7411 98.9415C10.3955 99.0412 10.0314 99.0473 9.6829 98.9591C9.23825 98.8601 8.84775 98.5829 8.59427 98.1861C8.39321 97.8488 8.41479 97.4207 8.44225 97.0236C8.47461 96.5749 8.50632 96.1255 8.53738 95.6754C8.53584 95.5613 8.56326 95.4488 8.61683 95.3495C8.9189 94.8863 9.65348 95.5434 10.0468 95.5424C10.6695 95.5413 11.3384 95.1865 11.7876 94.7522C11.8269 94.709 11.8726 94.6728 11.923 94.6449C12.1005 94.5614 12.278 94.7161 12.4359 94.8512C12.3321 95.1878 12.1849 95.5078 11.9985 95.8023C11.848 96.0506 11.6468 96.2605 11.4094 96.4166C11.172 96.5728 10.9045 96.6712 10.6264 96.7049C10.3479 96.7265 10.0625 96.6688 9.79276 96.744C9.52403 96.8194 9.27296 97.1092 9.36808 97.3846C9.46125 97.6528 9.7908 97.7116 10.0625 97.7271C10.443 97.7487 10.8333 97.7683 11.1943 97.6435C11.4149 97.5662 11.617 97.4383 11.8318 97.3444C12.7448 96.9462 13.8982 97.169 14.6524 96.4965C14.724 96.4277 14.8011 96.3656 14.8829 96.3108C15.0803 96.7456 14.7161 97.3478 14.366 97.5995Z" fill="#E8EAF2"/>
<path opacity="0.05" d="M14.366 97.5995C13.9923 97.8677 13.5285 97.9513 13.0793 98.0121C12.6291 98.072 12.1672 98.1184 11.7601 98.3288C11.409 98.5114 11.1128 98.8105 10.7411 98.9415C10.3955 99.0412 10.0314 99.0473 9.6829 98.9591C9.23825 98.8601 8.84775 98.5829 8.59427 98.1861C8.39321 97.8488 8.41479 97.4207 8.44225 97.0236C8.47461 96.5749 8.50632 96.1255 8.53738 95.6754C8.53584 95.5613 8.56326 95.4488 8.61683 95.3495C8.9189 94.8863 9.65348 95.5434 10.0468 95.5424C10.6695 95.5413 11.3384 95.1865 11.7876 94.7522C11.8269 94.709 11.8726 94.6728 11.923 94.6449C12.1005 94.5614 12.278 94.7161 12.4359 94.8512C12.3321 95.1878 12.1849 95.5078 11.9985 95.8023C11.848 96.0506 11.6468 96.2605 11.4094 96.4166C11.172 96.5728 10.9045 96.6712 10.6264 96.7049C10.3479 96.7265 10.0625 96.6688 9.79276 96.744C9.52403 96.8194 9.27296 97.1092 9.36808 97.3846C9.46125 97.6528 9.7908 97.7116 10.0625 97.7271C10.443 97.7487 10.8333 97.7683 11.1943 97.6435C11.4149 97.5662 11.617 97.4383 11.8318 97.3444C12.7448 96.9462 13.8982 97.169 14.6524 96.4965C14.724 96.4277 14.8011 96.3656 14.8829 96.3108C15.0803 96.7456 14.7161 97.3478 14.366 97.5995Z" fill="black"/>
<path d="M4.45808 68.2128C4.16704 69.7152 4.44301 71.2777 5.22762 72.5699C5.44156 72.9186 5.69226 73.2459 5.8531 73.6248C5.9585 73.895 6.04021 74.1748 6.09719 74.4607L6.79035 77.4782C6.97748 78.2929 7.16597 79.1233 7.10976 79.9592C7.0706 80.5417 6.931 81.1967 7.27234 81.6573C7.35465 81.7452 7.42414 81.8455 7.47856 81.9549C7.51259 82.083 7.51376 82.2183 7.48196 82.347C7.13126 84.5378 6.8712 86.8282 7.50465 88.9477C8.07878 90.8686 8.11155 92.9972 8.59974 94.9442C8.66019 95.1854 8.72932 95.4395 8.90297 95.6093C9.03347 95.7248 9.19005 95.803 9.35763 95.8365C10.077 96.0165 10.8367 95.8056 11.5077 95.4786C11.9792 95.2488 12.4868 94.8458 12.4465 94.3009C12.4273 94.0416 12.2833 93.8144 12.1856 93.5756C11.994 93.1071 11.9786 92.5838 11.9268 92.0768C11.797 90.8035 11.4238 89.5741 11.1417 88.3284C10.8596 87.0827 10.668 85.781 10.9066 84.5253C11.3945 81.9279 12.1755 79.401 13.2329 76.9984C13.2789 76.8706 13.3518 76.7553 13.446 76.6613C13.5521 76.598 13.6529 76.5256 13.7476 76.4448C13.8208 76.3256 13.868 76.1908 13.8856 76.0502C13.9905 75.6527 14.3022 75.3595 14.5111 75.0104C15.0386 74.129 14.8715 72.9992 14.8519 71.9579C14.8329 70.9453 14.9715 69.9234 14.8137 68.9243C14.6559 67.9251 14.1117 66.9038 13.1958 66.5908C12.7422 66.4357 12.2517 66.4709 11.777 66.5203C9.26205 66.7821 6.8183 67.2626 4.45808 68.2128Z" fill="#2F2E41"/>
<path opacity="0.1" d="M4.45808 68.2128C4.16704 69.7152 4.44301 71.2777 5.22762 72.5699C5.44156 72.9186 5.69226 73.2459 5.8531 73.6248C5.9585 73.895 6.04021 74.1748 6.09719 74.4607L6.79035 77.4782C6.97748 78.2929 7.16597 79.1233 7.10976 79.9592C7.0706 80.5417 6.931 81.1967 7.27234 81.6573C7.35465 81.7452 7.42414 81.8455 7.47856 81.9549C7.51259 82.083 7.51376 82.2183 7.48196 82.347C7.13126 84.5378 6.8712 86.8282 7.50465 88.9477C8.07878 90.8686 8.11155 92.9972 8.59974 94.9442C8.66019 95.1854 8.72932 95.4395 8.90297 95.6093C9.03347 95.7248 9.19005 95.803 9.35763 95.8365C10.077 96.0165 10.8367 95.8056 11.5077 95.4786C11.9792 95.2488 12.4868 94.8458 12.4465 94.3009C12.4273 94.0416 12.2833 93.8144 12.1856 93.5756C11.994 93.1071 11.9786 92.5838 11.9268 92.0768C11.797 90.8035 11.4238 89.5741 11.1417 88.3284C10.8596 87.0827 10.668 85.781 10.9066 84.5253C11.3945 81.9279 12.1755 79.401 13.2329 76.9984C13.2789 76.8706 13.3518 76.7553 13.446 76.6613C13.5521 76.598 13.6529 76.5256 13.7476 76.4448C13.8208 76.3256 13.868 76.1908 13.8856 76.0502C13.9905 75.6527 14.3022 75.3595 14.5111 75.0104C15.0386 74.129 14.8715 72.9992 14.8519 71.9579C14.8329 70.9453 14.9715 69.9234 14.8137 68.9243C14.6559 67.9251 14.1117 66.9038 13.1958 66.5908C12.7422 66.4357 12.2517 66.4709 11.777 66.5203C9.26205 66.7821 6.8183 67.2626 4.45808 68.2128Z" fill="black"/>
<path d="M14.7015 74.5638C14.694 74.9573 14.6517 75.3492 14.5749 75.7345C14.1316 78.3493 13.6592 80.9587 13.1577 83.5625C13.1136 83.7884 13.0704 84.0143 13.0126 84.2361C12.8257 84.9607 12.4989 85.637 12.0524 86.2228C9.96244 88.9624 9.78197 92.9409 8.64822 96.2448C8.57173 96.4686 8.49523 96.6925 8.41382 96.9132C8.20893 97.4731 7.9755 98.0209 7.71453 98.5543C7.68405 98.6321 7.63425 98.6998 7.57036 98.7503C7.50003 98.7875 7.4213 98.8036 7.34284 98.7967C6.32268 98.8029 5.31489 98.5618 4.39763 98.0922C4.26667 98.0414 4.15624 97.9449 4.08477 97.8189C4.04959 97.7184 4.03814 97.6104 4.05142 97.5043C4.08281 96.8493 4.12105 96.1705 4.41822 95.595C4.61541 95.2506 4.85998 94.9388 5.14398 94.6697C5.23225 92.6139 5.42546 90.554 5.85503 88.5467C6.0757 87.5204 6.34834 86.4827 6.91522 85.6152C7.33302 84.9747 7.93228 84.3423 7.85872 83.5698C7.82634 83.2304 7.691 82.8075 7.95385 82.6084C8.06859 82.5207 8.23825 82.5094 8.31573 82.3846C8.34696 82.3258 8.36444 82.26 8.36673 82.1927C8.42074 81.6625 8.38924 81.1265 8.27357 80.6073C8.17799 80.2681 8.10297 79.9229 8.04897 79.5737C8.01561 79.221 8.07251 78.8393 8.29612 78.5752C8.30984 77.8697 8.29121 77.1373 8.30494 76.4328C8.33137 76.0313 8.29962 75.6278 8.21078 75.2363C8.1598 75.0517 8.08231 74.8753 8.04308 74.6865C7.90284 74.0088 8.25298 73.197 7.83615 72.6596C7.66256 72.4368 7.39481 72.3254 7.16727 72.1645C6.71318 71.8458 6.41503 71.3238 6.24928 70.7761C6.1022 70.2215 6.01502 69.6513 5.98938 69.0762C5.97583 68.9543 5.97451 68.8312 5.98546 68.709C5.99281 68.6457 6.00866 68.5839 6.03253 68.5254C6.162 68.219 6.51017 68.1004 6.82008 68.022C8.78971 67.5252 10.8086 67.2769 12.8341 67.2824C13.5834 66.746 14.0051 66.9379 14.3229 67.5062C14.4983 67.8532 14.6403 68.2177 14.7465 68.5945C14.8917 69.0555 14.9005 71.6364 15.0417 72.0995C15.2252 72.7019 14.6946 73.9314 14.7015 74.5638Z" fill="#2F2E41"/>
<path d="M1.15383 51.0784C1.09815 51.4845 1.2838 51.8836 1.30433 52.2933C1.32226 52.6513 1.21392 53.0009 1.15194 53.3534C0.910017 54.7291 1.37481 56.1225 1.84782 57.4301C1.93778 57.6424 1.99361 57.869 2.01302 58.1005C2.02568 58.5273 1.79196 58.9184 1.72796 59.34C1.59346 60.226 2.21485 61.0594 2.22773 61.9566C2.23366 62.3696 2.10998 62.79 2.20824 63.19C2.27381 63.4569 2.43223 63.6863 2.54464 63.9353C2.74383 64.3766 2.79728 64.8773 2.98741 65.323C3.33101 66.1284 4.06918 66.6544 4.77168 67.1376C5.17134 66.9974 5.60343 66.831 5.82284 66.4528C5.91915 66.2664 5.98139 66.0628 6.00632 65.8523C6.15821 64.9347 6.15295 63.9974 6.14724 63.0661C6.16008 62.2647 6.11958 61.4633 6.02604 60.6678C5.88413 59.6559 5.57197 58.6802 5.34802 57.6848C5.06557 56.4295 4.92083 55.1324 4.48091 53.9282C4.09433 52.8699 3.49218 51.92 2.85837 51.0102C2.61654 50.6631 2.42563 50.1668 1.95626 50.247C1.75768 50.2825 1.57425 50.3813 1.43075 50.53C1.28725 50.6787 1.1906 50.8701 1.15383 51.0784Z" fill="#3F3D56"/>
<path opacity="0.05" d="M1.15383 51.0784C1.09815 51.4845 1.2838 51.8836 1.30433 52.2933C1.32226 52.6513 1.21392 53.0009 1.15194 53.3534C0.910017 54.7291 1.37481 56.1225 1.84782 57.4301C1.93778 57.6424 1.99361 57.869 2.01302 58.1005C2.02568 58.5273 1.79196 58.9184 1.72796 59.34C1.59346 60.226 2.21485 61.0594 2.22773 61.9566C2.23366 62.3696 2.10998 62.79 2.20824 63.19C2.27381 63.4569 2.43223 63.6863 2.54464 63.9353C2.74383 64.3766 2.79728 64.8773 2.98741 65.323C3.33101 66.1284 4.06918 66.6544 4.77168 67.1376C5.17134 66.9974 5.60343 66.831 5.82284 66.4528C5.91915 66.2664 5.98139 66.0628 6.00632 65.8523C6.15821 64.9347 6.15295 63.9974 6.14724 63.0661C6.16008 62.2647 6.11958 61.4633 6.02604 60.6678C5.88413 59.6559 5.57197 58.6802 5.34802 57.6848C5.06557 56.4295 4.92083 55.1324 4.48091 53.9282C4.09433 52.8699 3.49218 51.92 2.85837 51.0102C2.61654 50.6631 2.42563 50.1668 1.95626 50.247C1.75768 50.2825 1.57425 50.3813 1.43075 50.53C1.28725 50.6787 1.1906 50.8701 1.15383 51.0784Z" fill="black"/>
<path d="M9.72151 43.8937C11.7329 43.8937 13.3634 42.1788 13.3634 40.0634C13.3634 37.9479 11.7329 36.233 9.72151 36.233C7.71013 36.233 6.07959 37.9479 6.07959 40.0634C6.07959 42.1788 7.71013 43.8937 9.72151 43.8937Z" fill="#A0616A"/>
<path d="M11.841 46.3337C11.6822 46.5269 11.4691 46.7399 11.2336 46.6776C11.1485 46.647 11.0687 46.602 10.9973 46.5445C10.5775 46.2599 10.0622 46.1932 9.56828 46.1149C8.57275 45.9571 7.58924 45.7246 6.6253 45.419C6.34552 45.3119 6.05215 45.2492 5.75483 45.2329C5.13756 45.2362 4.59051 45.6678 4.20369 46.1737C3.81687 46.6796 3.54281 47.2716 3.16323 47.7836C2.89279 48.1484 2.57073 48.4698 2.31816 48.8485C1.68054 49.8045 1.5435 51.0517 1.70811 52.2066C1.87272 53.3614 2.31142 54.4504 2.74615 55.5249C2.97848 56.1487 3.26207 56.7501 3.5937 57.3222C3.44704 58.1996 3.52445 59.2031 3.92116 59.9902C4.05036 60.2466 4.20869 60.4966 4.2514 60.7833C4.27099 60.9772 4.26328 61.1732 4.22852 61.3648L4.04316 62.7516C3.98672 63.1738 3.93026 63.5963 3.85716 64.0157C3.72338 64.7833 3.54188 65.6164 3.8799 66.3112C4.2847 67.1432 3.85953 68.2094 3.96589 69.1373C5.10532 68.6744 6.29914 68.3761 7.51475 68.2505C8.29737 68.1698 9.0946 68.1596 9.84966 67.9286C10.3212 67.7843 10.7684 67.5558 11.2472 67.4408C11.6355 67.3606 12.0299 67.3183 12.4256 67.3143C13.2983 67.2772 14.1771 67.2405 15.041 67.3758C15.111 67.3868 15.1962 67.3927 15.2381 67.3327C15.2567 67.3001 15.2658 67.2625 15.2643 67.2245C15.2776 66.8839 15.2002 66.5462 15.041 66.2493C14.9309 66.0449 14.7778 65.8449 14.7821 65.61C14.79 65.5005 14.8156 65.3931 14.8577 65.2926L15.2405 64.219C15.5636 63.3126 15.4099 62.2598 15.5777 61.3081C15.7088 60.5642 15.7929 59.8119 15.8292 59.0563C15.8603 58.4104 15.841 57.711 15.4705 57.195C15.3621 57.0705 15.2681 56.9331 15.1905 56.7855C15.1373 56.6286 15.1146 56.4621 15.1238 56.2958C15.1156 55.0034 15.1493 53.7117 15.225 52.4207C14.9018 51.8103 14.5649 51.1861 14.2418 50.5758C13.8658 49.8654 13.4845 49.1405 13.3327 48.3433C13.2322 47.8156 13.2357 47.2723 13.1638 46.7395C13.1562 46.6041 13.1115 46.474 13.035 46.3649C12.9116 46.2179 12.7029 46.1969 12.5166 46.203C12.2864 46.2107 12.0586 46.2547 11.841 46.3337Z" fill="#3F3D56"/>
<path d="M13.0573 52.3163C13.279 52.607 13.51 52.9059 13.8245 53.0775C14.1863 53.275 14.6124 53.2795 15.0199 53.2704C16.698 53.2328 18.3697 53.0396 20.0156 52.6932C20.2031 52.6593 20.3872 52.6074 20.5657 52.5381C20.7636 52.4391 20.9502 52.3167 21.1218 52.1734C21.6636 51.7637 22.2132 51.3463 22.6252 50.7942C23.1153 50.1274 23.4234 49.3327 23.5163 48.4955C23.9082 48.1158 24.1163 47.576 24.3125 47.0549C24.4094 46.8339 24.4707 46.5974 24.494 46.3553C24.5045 46.1075 24.3484 45.8478 24.3916 45.6039C24.4672 45.1835 24.6699 44.8 24.9695 44.5106C25.033 44.463 25.081 44.3959 25.107 44.3185C25.115 44.254 25.1036 44.1885 25.0742 44.1312C24.9065 43.7384 24.5231 43.4851 24.1255 43.3821C23.7228 43.3004 23.3107 43.2832 22.9031 43.3311C22.7672 43.3581 22.6334 43.3955 22.5027 43.4429L22.2179 44.2317C22.1796 44.3636 22.1163 44.486 22.0318 44.5915C21.9684 44.652 21.9008 44.7076 21.8296 44.7577C21.6851 44.8868 21.5729 45.0513 21.503 45.2366C21.4331 45.422 21.4077 45.6226 21.4288 45.8208C21.1714 45.9259 20.9617 46.1302 20.8424 46.3922C20.7231 46.6541 20.7031 46.954 20.7866 47.2309C20.5724 47.2792 20.3736 47.3845 20.2092 47.5368C20.0447 47.689 19.9202 47.8831 19.8475 48.1004C19.8272 48.1994 19.7852 48.2921 19.7249 48.371C19.6309 48.446 19.5147 48.4835 19.397 48.477C19.0751 48.498 18.7937 48.7645 18.5021 48.6199C18.1708 48.4566 17.8004 48.4022 17.4392 48.4637C17.3649 48.4821 17.2886 48.4892 17.2124 48.4848C17.1472 48.4731 17.0844 48.45 17.0264 48.4167C16.895 48.3362 16.7528 48.2773 16.6045 48.2421C16.53 48.2257 16.4525 48.2324 16.3815 48.2612C16.3105 48.2901 16.249 48.3399 16.2042 48.4047C16.1021 48.2869 16.0412 48.1361 15.9482 48.0102C15.9069 47.9432 15.8488 47.8894 15.7803 47.855C15.7117 47.8206 15.6354 47.8069 15.5599 47.8154C15.6569 47.7245 15.5576 47.5437 15.4316 47.5107C15.3024 47.4995 15.1724 47.5045 15.0443 47.5254C14.7074 47.5236 14.449 47.2019 14.1218 47.1177C13.8211 47.0403 13.4202 47.1326 13.2661 46.8502C13.2114 46.7501 13.2007 46.6143 13.1077 46.553C13.0447 46.5205 12.9729 46.5117 12.9045 46.5283C12.6909 46.5582 12.4834 46.6244 12.29 46.7244C11.9747 48.0218 12.1401 49.3691 12.3804 50.6841C12.4682 51.2805 12.7014 51.8429 13.0573 52.3163Z" fill="#3F3D56"/>
<path d="M11.2261 45.3724C10.8354 45.1166 10.3754 45.0081 9.92269 44.9212C9.65088 44.8561 9.37123 44.835 9.09336 44.8585C8.83699 44.8921 8.59091 44.9962 8.33295 45.0113C7.97087 45.0325 7.62374 44.8781 7.27396 44.7774C6.92419 44.6767 6.52016 44.6383 6.22568 44.8608C6.16301 44.9257 6.08372 44.97 5.99751 44.9883C5.90809 44.9769 5.82497 44.934 5.76166 44.8666C5.51388 44.6801 5.21318 44.5877 4.9089 44.6046C4.60461 44.6214 4.31482 44.7466 4.08705 44.9595C3.41931 45.618 3.49488 46.9046 2.71234 47.4041C2.49663 47.5418 2.22087 47.6146 2.09494 47.8445C2.06445 47.9178 2.02886 47.9886 1.98847 48.0563C1.93605 48.1169 1.8719 48.165 1.80034 48.1973C1.57328 48.3039 1.35715 48.4346 1.15531 48.5873C1.05462 48.6644 0.96982 48.7621 0.906016 48.8746C0.842212 48.9871 0.800725 49.112 0.784055 49.2418C0.781163 49.4321 0.820181 49.6205 0.898058 49.7923C1.28099 50.7801 1.94535 51.619 2.79987 52.1937C3.65438 52.7683 4.65713 53.0506 5.67035 53.0018C5.85026 53.0115 6.02756 52.9533 6.17026 52.8377C6.24555 52.7484 6.30491 52.6456 6.34549 52.5342C6.71337 51.7229 7.40433 51.124 7.84308 50.3526C8.10458 49.8929 8.27243 49.3788 8.54464 48.926C8.95729 48.2397 9.58484 47.7326 10.1991 47.2406C10.5455 46.9631 10.9311 46.6719 11.3662 46.6914C11.7541 46.7087 12.0362 46.7306 11.894 46.2304C11.7755 45.8699 11.5387 45.5657 11.2261 45.3724Z" fill="#3F3D56"/>
<path opacity="0.05" d="M11.2261 45.3724C10.8354 45.1166 10.3754 45.0081 9.92269 44.9212C9.65088 44.8561 9.37123 44.835 9.09336 44.8585C8.83699 44.8921 8.59091 44.9962 8.33295 45.0113C7.97087 45.0325 7.62374 44.8781 7.27396 44.7774C6.92419 44.6767 6.52016 44.6383 6.22568 44.8608C6.16301 44.9257 6.08372 44.97 5.99751 44.9883C5.90809 44.9769 5.82497 44.934 5.76166 44.8666C5.51388 44.6801 5.21318 44.5877 4.9089 44.6046C4.60461 44.6214 4.31482 44.7466 4.08705 44.9595C3.41931 45.618 3.49488 46.9046 2.71234 47.4041C2.49663 47.5418 2.22087 47.6146 2.09494 47.8445C2.06445 47.9178 2.02886 47.9886 1.98847 48.0563C1.93605 48.1169 1.8719 48.165 1.80034 48.1973C1.57328 48.3039 1.35715 48.4346 1.15531 48.5873C1.05462 48.6644 0.96982 48.7621 0.906016 48.8746C0.842212 48.9871 0.800725 49.112 0.784055 49.2418C0.781163 49.4321 0.820181 49.6205 0.898058 49.7923C1.28099 50.7801 1.94535 51.619 2.79987 52.1937C3.65438 52.7683 4.65713 53.0506 5.67035 53.0018C5.85026 53.0115 6.02756 52.9533 6.17026 52.8377C6.24555 52.7484 6.30491 52.6456 6.34549 52.5342C6.71337 51.7229 7.40433 51.124 7.84308 50.3526C8.10458 49.8929 8.27243 49.3788 8.54464 48.926C8.95729 48.2397 9.58484 47.7326 10.1991 47.2406C10.5455 46.9631 10.9311 46.6719 11.3662 46.6914C11.7541 46.7087 12.0362 46.7306 11.894 46.2304C11.7755 45.8699 11.5387 45.5657 11.2261 45.3724Z" fill="black"/>
<path d="M13.1214 100.888C12.8576 101.146 12.4947 101.26 12.1426 101.34C11.3386 101.505 10.5245 101.611 9.70645 101.657C9.44165 101.678 9.17586 101.699 8.91107 101.721C8.1343 101.783 7.35656 101.846 6.57686 101.849C5.61448 101.852 4.65374 101.765 3.70619 101.588C3.66827 101.592 3.63003 101.586 3.59454 101.572C3.55904 101.557 3.52729 101.534 3.50182 101.504C3.47635 101.474 3.45789 101.439 3.4479 101.4C3.43792 101.361 3.4367 101.321 3.44434 101.282C3.46118 100.261 3.57951 99.2455 3.7974 98.2511C3.88764 97.8426 4.58396 98.7586 4.61536 98.7967C4.80856 99.0278 4.95469 99.134 5.24794 99.1505C6.04922 99.197 6.94661 98.6843 7.58312 98.2284C7.71942 98.1218 7.86411 98.0276 8.01562 97.9468C8.12694 97.8942 8.24486 97.8588 8.36576 97.8416C8.77803 97.8016 9.19237 97.8898 9.55738 98.0953C10.036 98.3449 10.4558 98.7039 10.9295 98.9608C11.3146 99.1689 11.7304 99.3073 12.1593 99.3702C12.5928 99.4332 13.1107 99.4631 13.3333 99.8581C13.3337 99.8586 13.3339 99.859 13.3341 99.8596C13.3343 99.8601 13.3343 99.8607 13.3343 99.8612C13.5167 100.188 13.3843 100.63 13.1214 100.888Z" fill="#2F2E41"/>
<path d="M13.1215 101.039C12.8576 101.297 12.4948 101.411 12.1427 101.491C11.3386 101.656 10.5245 101.762 9.70646 101.808C9.44166 101.829 9.17588 101.85 8.91108 101.872C8.13432 101.934 7.35657 101.997 6.57688 102C5.61449 102.003 4.65376 101.916 3.70621 101.739C3.66277 101.737 3.62015 101.726 3.58101 101.706C3.54186 101.686 3.50702 101.658 3.47866 101.623C3.40384 101.519 3.34392 101.404 3.30081 101.282C3.31748 100.263 3.57968 99.2444 3.79741 98.2511C3.88766 97.8426 4.58398 98.7586 4.61537 98.7968C4.80857 99.0278 4.9547 99.1341 5.24795 99.1506C6.04923 99.197 6.94662 98.6843 7.58313 98.2284C7.71943 98.1218 7.86412 98.0276 8.01564 97.9468C8.12695 97.8943 8.24487 97.8588 8.36578 97.8416C8.26279 98.4481 7.43602 99.1805 7.00938 99.4033C6.14633 99.854 5.12046 99.6292 4.15736 99.6818C4.08686 99.6798 4.01713 99.6976 3.95532 99.7334C3.8396 99.8138 3.83273 99.9861 3.83665 100.132C3.8445 100.373 3.87391 100.657 4.07301 100.779C4.1726 100.83 4.28233 100.854 4.39273 100.849C6.76608 100.959 9.14393 100.871 11.5042 100.587C11.9012 100.56 12.2917 100.468 12.6625 100.316C12.9047 100.197 13.1306 100.044 13.3343 99.8613C13.6375 100.112 13.3843 100.781 13.1215 101.039Z" fill="#E8EAF2"/>
<path d="M11.1384 40.022C11.1246 40.4181 11.3816 41.1865 10.6774 40.972C10.2576 40.8441 10.139 40.3211 9.60642 40.4377C9.06896 40.5563 8.95127 41.2443 8.77082 41.6961C8.62381 42.0551 8.3959 42.3712 8.10678 42.6168C7.81766 42.8625 7.47602 43.0304 7.11137 43.1062C6.961 43.143 6.80457 43.1426 6.65435 43.1051C6.31109 43.002 6.11494 42.6296 5.97469 42.2841C5.85325 41.9918 5.75261 41.6905 5.6736 41.3825C5.61888 41.1659 5.58244 40.9447 5.56473 40.7213V40.7203C5.55281 40.5683 5.55215 40.4155 5.56277 40.2634C5.62653 39.3629 6.11396 38.5418 6.73772 37.9208C7.36148 37.2999 8.1196 36.8512 8.86792 36.4087C9.1123 36.2482 9.37669 36.1243 9.65351 36.0404C9.92655 35.9825 10.2066 35.9703 10.4832 36.0043C10.8475 36.0207 11.2055 36.1092 11.5385 36.2653C11.6751 36.3362 11.8004 36.4287 11.9102 36.5397C12.0665 36.692 12.1781 36.8881 12.2319 37.1049C12.3673 37.6867 12.0142 38.2107 11.7278 38.6707C11.4728 39.0792 11.157 39.5124 11.1384 40.022Z" fill="#2F2E41"/>
<path d="M11.8994 37.7805C11.8336 37.8928 11.7615 38.001 11.6836 38.1044C11.5349 38.3021 11.3681 38.4838 11.1854 38.647C11.0779 38.7455 10.9656 38.8381 10.849 38.9245C10.6329 39.0845 10.4057 39.2272 10.1694 39.3515C9.48087 39.7167 8.7355 39.9457 7.99404 40.1716C7.50955 40.3201 7.02473 40.4683 6.53958 40.6161C6.03253 41.0194 4.33386 42.3429 4.04846 42.1778C3.71207 41.9829 5.55546 40.6104 5.55546 40.6104L5.64023 40.678C5.37052 40.4996 5.22929 40.0859 5.16849 39.728C5.06061 39.0875 5.0096 38.4221 5.15377 37.7888C5.29794 37.1565 5.65985 36.5541 6.21103 36.2581C6.45524 36.126 6.75143 36.0363 6.92797 35.8331C6.95473 35.803 6.97809 35.7698 6.9976 35.734C7.00828 35.7174 7.01747 35.6998 7.02507 35.6814C7.04454 35.6256 7.07057 35.5726 7.10254 35.5236C7.20356 35.4009 7.38696 35.438 7.53996 35.4576C7.55663 35.4597 7.57232 35.4617 7.589 35.4628C7.61636 35.4657 7.64386 35.4671 7.67136 35.4669C8.21765 35.4793 8.74726 35.1595 9.30041 35.1595C9.90651 35.1585 10.4224 35.5277 10.9559 35.7794C11.0638 35.831 11.1658 35.8774 11.2619 35.9249C11.6474 36.1136 11.9377 36.3148 12.0965 36.8512C12.1887 37.1647 12.0622 37.502 11.8994 37.7805Z" fill="#3F3D56"/>
<path opacity="0.1" d="M5.59183 40.5952C5.66855 40.6454 5.75412 40.679 5.84343 40.6937C5.95593 40.7281 6.07418 40.7364 6.19004 40.7182C6.30591 40.6999 6.41663 40.6555 6.51461 40.5879L5.59183 40.5952Z" fill="black"/>
</g>
<defs>
<linearGradient id="paint0_linear" x1="8.2265" y1="97.9409" x2="8.2265" y2="96.7607" gradientUnits="userSpaceOnUse">
<stop stop-color="#808080" stop-opacity="0.25"/>
<stop offset="0.53514" stop-color="#808080" stop-opacity="0.12"/>
<stop offset="1" stop-color="#808080" stop-opacity="0.1"/>
</linearGradient>
<clipPath id="clip0">
<rect width="99" height="102" fill="white"/>
</clipPath>
</defs>
</svg>
