<svg width="99" height="102" viewBox="0 0 99 102" fill="none" xmlns="http://www.w3.org/2000/svg">
<path opacity="0.1" d="M97.0833 27.5585C96.1038 24.4978 94.7795 21.6584 93.1572 19.1403L38.6753 18.4178L83.5317 9.94151C80.6339 8.38936 77.5489 7.56617 74.4302 7.51288C70.1392 2.89814 64.8556 0.270361 59.3653 0.0204443C53.8751 -0.229472 48.4715 1.91183 43.9585 6.12581C40.3514 3.6301 36.3525 2.33295 32.2964 2.34289C20.191 2.34289 10.1044 13.6235 7.84189 28.5812L97.0833 27.5585Z" fill="#F55555"/>
<path opacity="0.1" d="M98.9991 40.1039C99.0018 36.0473 98.4256 32.0277 97.3017 28.2634L2.87827 41.5982C1.90802 43.9676 1.1657 46.4934 0.669191 49.1148L29.9112 54.9784L0 59.2543C0.899753 76.1879 11.6893 89.5592 24.8697 89.5592C31.5045 89.5592 37.5338 86.171 42.0007 80.6454C46.4816 86.2757 52.569 89.7383 59.275 89.7383C69.2257 89.7383 77.8136 82.1157 81.8128 71.0948C89.8366 67.6688 96.0692 59.0664 98.2024 48.304L61.2244 40.5881H98.9953C98.9972 40.4267 98.9991 40.2653 98.9991 40.1039Z" fill="#F55555"/>
<path opacity="0.1" d="M2.63459 93.6082C3.9711 93.6082 5.05455 93.4078 5.05455 93.1606C5.05455 92.9134 3.9711 92.713 2.63459 92.713C1.29808 92.713 0.21463 92.9134 0.21463 93.1606C0.21463 93.4078 1.29808 93.6082 2.63459 93.6082Z" fill="#F55555"/>
<path opacity="0.1" d="M11.9049 94.873C13.2414 94.873 14.3248 94.6726 14.3248 94.4253C14.3248 94.1781 13.2414 93.9777 11.9049 93.9777C10.5683 93.9777 9.48489 94.1781 9.48489 94.4253C9.48489 94.6726 10.5683 94.873 11.9049 94.873Z" fill="#F55555"/>
<path opacity="0.1" d="M22.8247 93.1606C24.1612 93.1606 25.2446 92.9602 25.2446 92.7129C25.2446 92.4657 24.1612 92.2653 22.8247 92.2653C21.4882 92.2653 20.4047 92.4657 20.4047 92.7129C20.4047 92.9602 21.4882 93.1606 22.8247 93.1606Z" fill="#F55555"/>
<path opacity="0.1" d="M8.19432 98.3445C9.14468 98.3445 9.91509 98.2022 9.91509 98.0267C9.91509 97.8512 9.14468 97.7089 8.19432 97.7089C7.24396 97.7089 6.47354 97.8512 6.47354 98.0267C6.47354 98.2022 7.24396 98.3445 8.19432 98.3445Z" fill="#F55555"/>
<path opacity="0.1" d="M17.817 98.0267C18.7673 98.0267 19.5377 97.8844 19.5377 97.7089C19.5377 97.5334 18.7673 97.3911 17.817 97.3911C16.8666 97.3911 16.0962 97.5334 16.0962 97.7089C16.0962 97.8844 16.8666 98.0267 17.817 98.0267Z" fill="#F55555"/>
<path d="M11.9573 94.3245C11.9573 94.3245 8.56263 79.3542 12.4878 73.3583C15.4251 68.8718 18.758 69.4089 20.251 69.9638C20.6373 70.1022 20.9966 70.352 21.3041 70.6958C21.6116 71.0396 21.8599 71.4692 22.0317 71.9548C22.5538 73.468 22.4591 75.9282 18.7748 78.7981C12.6059 83.6037 12.2226 90.1948 12.2226 90.1948L11.9573 94.3245Z" fill="#F55555"/>
<path d="M19.7196 72.0872C19.7196 72.0872 9.71358 76.2963 11.9573 94.3245" stroke="#565987" stroke-miterlimit="10"/>
<path d="M13.8759 73.5966C13.8759 73.5966 15.2536 74.845 14.8131 76.7226" stroke="#565987" stroke-miterlimit="10"/>
<path d="M18.7158 74.7063C18.7158 74.7063 17.8723 73.5538 16.8488 74.1893" stroke="#565987" stroke-miterlimit="10"/>
<path d="M14.7606 80.5067C14.7606 80.5067 13.2817 79.4979 12.8993 80.7589" stroke="#565987" stroke-miterlimit="10"/>
<path d="M11.1007 82.61C11.1007 82.61 12.2113 82.4915 12.232 83.2065" stroke="#565987" stroke-miterlimit="10"/>
<path d="M11.8224 94.4443C11.8224 94.4443 15.7982 83.5633 16.8901 83.8016C17.4084 83.9151 17.6473 84.6011 17.7561 85.2909C17.8908 86.1848 17.8151 87.1131 17.5396 87.9465C16.9772 89.6803 15.457 92.9904 11.8224 94.4443Z" fill="#F55555"/>
<path d="M16.8573 85.8671C16.8573 85.8671 12.6847 94.008 11.8786 94.3648" stroke="#565987" stroke-miterlimit="10"/>
<path d="M17.2415 87.1369H16.2677" stroke="#565987" stroke-miterlimit="10"/>
<path d="M16.0747 90.1154L14.5488 90.2036" stroke="#565987" stroke-miterlimit="10"/>
<path d="M15.1458 87.7334L15.3117 88.8027" stroke="#565987" stroke-miterlimit="10"/>
<path d="M13.5225 90.9892L13.5526 91.9614" stroke="#565987" stroke-miterlimit="10"/>
<path d="M11.9377 94.4443C11.9377 94.4443 7.96189 83.5633 6.87001 83.8016C6.35171 83.9151 6.11271 84.6011 6.00399 85.2909C5.87031 86.1825 5.94631 87.108 6.22143 87.9389C6.78472 89.6803 8.30024 92.9904 11.9377 94.4443Z" fill="#F55555"/>
<path d="M6.89999 85.8671C6.89999 85.8671 11.0726 94.008 11.8786 94.3648" stroke="#565987" stroke-miterlimit="10"/>
<path d="M6.51666 87.1369H7.49046" stroke="#565987" stroke-miterlimit="10"/>
<path d="M7.68259 90.1154L9.20935 90.2036" stroke="#565987" stroke-miterlimit="10"/>
<path d="M8.6123 87.7334L8.44641 88.8027" stroke="#565987" stroke-miterlimit="10"/>
<path d="M10.2358 90.9892L10.2057 91.9614" stroke="#565987" stroke-miterlimit="10"/>
<path d="M18.7636 96.9851C18.872 96.8666 18.9511 96.7065 18.9904 96.5261C19.0078 96.4355 19.0016 96.3397 18.9727 96.2545C18.9439 96.1694 18.8942 96.1001 18.832 96.0583C18.6867 95.9827 18.5312 96.1188 18.414 96.255C18.2968 96.3912 18.1609 96.5488 18.0072 96.5198C18.0857 96.4226 18.1442 96.2998 18.177 96.1633C18.2099 96.0268 18.2159 95.8812 18.1947 95.7406C18.1882 95.6822 18.1701 95.6272 18.1422 95.5817C18.0616 95.4657 17.9154 95.5161 17.8189 95.6069C17.5114 95.8969 17.4261 96.458 17.4243 96.9637C17.4074 96.7783 17.4055 96.591 17.4186 96.4051C17.4186 96.2185 17.3793 96.0104 17.2621 95.9108C17.1896 95.8572 17.1077 95.831 17.025 95.8351C16.8863 95.8351 16.7335 95.8465 16.6389 95.9827C16.5217 96.1516 16.5517 96.4341 16.6539 96.6207C16.7678 96.7935 16.9028 96.9389 17.0531 97.0507C17.1658 97.1431 17.2618 97.268 17.3343 97.4164C17.3427 97.4373 17.3496 97.4593 17.3549 97.482H18.22C18.4173 97.3507 18.6002 97.1835 18.7636 96.9851V96.9851Z" fill="#F55555"/>
<path d="M3.61496 92.6032C3.72345 92.4848 3.80256 92.3247 3.84177 92.1442C3.85906 92.0535 3.85278 91.9575 3.82397 91.8722C3.79516 91.7868 3.74556 91.7173 3.68337 91.6751C3.5381 91.6007 3.38346 91.7369 3.26536 91.8731C3.14727 92.0093 3.01325 92.1657 2.8586 92.1367C2.93729 92.0397 2.99592 91.9169 3.02878 91.7803C3.06164 91.6437 3.06759 91.498 3.04605 91.3574C3.03902 91.2994 3.02058 91.2449 2.99263 91.1998C2.91202 91.0837 2.76581 91.1329 2.66928 91.225C2.36186 91.515 2.27657 92.0761 2.2747 92.5818C2.25781 92.396 2.25593 92.2083 2.26908 92.0219C2.26908 91.8353 2.23065 91.6285 2.11349 91.5289C2.04065 91.4753 1.9584 91.4491 1.87543 91.4532C1.73766 91.4456 1.58395 91.4646 1.48929 91.6007C1.37213 91.7697 1.40306 92.0522 1.50429 92.2312C1.6181 92.4051 1.75352 92.551 1.90449 92.6625C2.01745 92.7544 2.11356 92.8794 2.18566 93.0282C2.19414 93.0492 2.20135 93.0712 2.20722 93.0938H3.07229C3.26887 92.9641 3.45143 92.7991 3.61496 92.6032V92.6032Z" fill="#F55555"/>
<path d="M8.66386 96.9851C8.77227 96.8666 8.85136 96.7065 8.89067 96.5261C8.90808 96.4355 8.90185 96.3397 8.87302 96.2545C8.84419 96.1694 8.79451 96.1001 8.73228 96.0583C8.58701 95.9827 8.43143 96.1188 8.31427 96.255C8.19712 96.3912 8.06121 96.5488 7.90751 96.5198C7.98597 96.4226 8.04445 96.2998 8.07729 96.1633C8.11012 96.0268 8.11621 95.8812 8.09495 95.7406C8.0885 95.6822 8.07035 95.6272 8.04247 95.5817C7.96187 95.4657 7.81566 95.5161 7.71912 95.6069C7.41171 95.8969 7.32642 96.458 7.32454 96.9637C7.30766 96.7783 7.30577 96.591 7.31892 96.4051C7.31892 96.2185 7.28049 96.0104 7.16333 95.9108C7.09046 95.8573 7.00824 95.8312 6.92528 95.8351C6.7875 95.8351 6.63379 95.8465 6.53913 95.9827C6.42198 96.1516 6.45197 96.4341 6.55413 96.6207C6.66809 96.7935 6.80311 96.9389 6.95339 97.0507C7.06608 97.1431 7.16212 97.268 7.23457 97.4164C7.24296 97.4373 7.24986 97.4593 7.25519 97.482H8.12026C8.31755 97.3507 8.50046 97.1835 8.66386 96.9851V96.9851Z" fill="#F55555"/>
<path d="M22.9821 88.1268C22.9821 88.1268 23.3064 88.698 22.8322 89.5593C22.3579 90.4205 21.968 91.1481 22.1255 91.6853C22.1255 91.6853 22.8406 90.0851 23.4226 90.0624C24.0047 90.0397 23.6223 89.0889 22.9821 88.1268Z" fill="#F55555"/>
<path opacity="0.1" d="M22.9821 88.1268C23.0104 88.182 23.0328 88.2423 23.0487 88.3058C23.6166 89.2037 23.9184 90.041 23.3729 90.0624C22.864 90.0826 22.2548 91.3057 22.1086 91.6147C22.1133 91.6386 22.1189 91.6613 22.1255 91.6853C22.1255 91.6853 22.8406 90.0851 23.4226 90.0624C24.0046 90.0397 23.6223 89.0889 22.9821 88.1268Z" fill="black"/>
<path d="M23.5848 88.8544C23.5848 89.0549 23.5679 89.2175 23.5473 89.2175C23.5267 89.2175 23.5098 89.0549 23.5098 88.8544C23.5098 88.6539 23.5314 88.7485 23.552 88.7485C23.5726 88.7485 23.5848 88.6539 23.5848 88.8544Z" fill="#FFD037"/>
<path d="M23.7919 89.094C23.6607 89.1898 23.5463 89.2478 23.537 89.22C23.5276 89.1923 23.6251 89.094 23.7563 89.0019C23.8875 88.9099 23.835 88.9754 23.8453 89.0019C23.8556 89.0284 23.9231 88.9981 23.7919 89.094Z" fill="#FFD037"/>
<path d="M21.2689 88.1268C21.2689 88.1268 20.9446 88.698 21.4188 89.5593C21.8931 90.4205 22.2839 91.1481 22.1255 91.6853C22.1255 91.6853 21.4104 90.0851 20.8283 90.0624C20.2463 90.0397 20.6325 89.0889 21.2689 88.1268Z" fill="#F55555"/>
<path opacity="0.1" d="M21.2688 88.1268C21.2407 88.1819 21.2186 88.2422 21.2032 88.3058C20.6353 89.2037 20.3325 90.041 20.878 90.0624C21.3869 90.0826 21.9971 91.3057 22.1433 91.6147C22.1377 91.6386 22.132 91.6613 22.1255 91.6853C22.1255 91.6853 21.4104 90.0851 20.8283 90.0624C20.2463 90.0397 20.6325 89.0889 21.2688 88.1268Z" fill="black"/>
<path d="M20.6662 88.8544C20.6662 89.0549 20.6831 89.2175 20.7037 89.2175C20.7243 89.2175 20.7412 89.0549 20.7412 88.8544C20.7412 88.6539 20.7206 88.7485 20.6999 88.7485C20.6793 88.7485 20.6662 88.6539 20.6662 88.8544Z" fill="#FFD037"/>
<path d="M20.4591 89.094C20.5903 89.1898 20.7046 89.2478 20.715 89.22C20.7253 89.1923 20.6259 89.094 20.4956 89.0019C20.3654 88.9099 20.416 88.9754 20.4019 89.0019C20.3879 89.0284 20.3288 88.9981 20.4591 89.094Z" fill="#FFD037"/>
<path d="M20.7693 91.6096C20.7693 91.6096 21.6765 91.573 21.9493 91.3107C22.222 91.0485 23.3439 90.7357 23.4123 91.1556C23.4807 91.5755 24.7741 93.2438 23.7507 93.2552C22.7272 93.2665 21.3729 93.0408 21.1001 92.8176C20.8274 92.5944 20.7693 91.6096 20.7693 91.6096Z" fill="#A8A8A8"/>
<path opacity="0.2" d="M23.7694 93.1089C22.7459 93.1202 21.3907 92.8945 21.1179 92.6713C20.9099 92.5011 20.8274 91.8908 20.8002 91.6083H20.7693C20.7693 91.6083 20.8274 92.5932 21.1001 92.8164C21.3729 93.0395 22.7272 93.2653 23.7507 93.2539C24.0468 93.2539 24.1481 93.1089 24.1424 92.8996C24.1003 93.0282 23.9887 93.1064 23.7694 93.1089Z" fill="black"/>
<path opacity="0.1" d="M57.3958 102C74.4474 102 88.2704 101.157 88.2704 100.116C88.2704 99.0757 74.4474 98.2322 57.3958 98.2322C40.3442 98.2322 26.5211 99.0757 26.5211 100.116C26.5211 101.157 40.3442 102 57.3958 102Z" fill="#F55555"/>
<path d="M54.2504 43.7923C54.2504 43.7923 56.2186 48.8021 56.3714 49.5171C56.4111 49.7156 56.4969 49.8918 56.6163 50.0202C56.7356 50.1485 56.8823 50.2223 57.0349 50.2308C57.0349 50.2308 58.9957 50.8613 59.4643 50.9458C59.9329 51.0303 63.9949 51.4918 63.9949 51.4918C63.9949 51.4918 65.0259 51.5347 65.1505 51.0303C65.2649 50.5688 67.2565 48.1439 68.4093 50.2598C68.5156 50.4555 68.5861 50.6822 68.6151 50.9215C68.6441 51.1607 68.6307 51.4058 68.5761 51.6368C68.3643 52.5447 67.9295 53.986 67.4627 53.0894C66.8066 51.8285 66.0437 52.1828 66.0437 52.8549C66.0437 53.527 64.994 53.2773 64.651 53.3719C64.4635 53.4236 63.8187 53.6543 63.261 53.8561C62.6138 54.0915 61.9507 54.2397 61.2816 54.2987C60.1747 54.3958 58.543 54.4765 57.9647 54.1827C57.2664 53.8258 56.049 53.7439 55.5279 53.725C55.3552 53.7193 55.1886 53.6389 55.0527 53.4955C54.3294 52.7337 53.7176 51.7977 53.2485 50.7352C52.4359 48.8437 50.7648 44.9272 50.8773 43.7923C50.9897 42.6574 54.2504 43.7923 54.2504 43.7923Z" fill="#EFB7B9"/>
<path opacity="0.05" d="M54.2504 43.7923C54.2504 43.7923 56.2186 48.8021 56.3714 49.5171C56.4111 49.7156 56.4969 49.8918 56.6163 50.0202C56.7356 50.1485 56.8823 50.2223 57.0349 50.2308C57.0349 50.2308 58.9957 50.8613 59.4643 50.9458C59.9329 51.0303 63.9949 51.4918 63.9949 51.4918C63.9949 51.4918 65.0259 51.5347 65.1505 51.0303C65.2649 50.5688 67.2565 48.1439 68.4093 50.2598C68.5156 50.4555 68.5861 50.6822 68.6151 50.9215C68.6441 51.1607 68.6307 51.4058 68.5761 51.6368C68.3643 52.5447 67.9295 53.986 67.4627 53.0894C66.8066 51.8285 66.0437 52.1828 66.0437 52.8549C66.0437 53.527 64.994 53.2773 64.651 53.3719C64.4635 53.4236 63.8187 53.6543 63.261 53.8561C62.6138 54.0915 61.9507 54.2397 61.2816 54.2987C60.1747 54.3958 58.543 54.4765 57.9647 54.1827C57.2664 53.8258 56.049 53.7439 55.5279 53.725C55.3552 53.7193 55.1886 53.6389 55.0527 53.4955C54.3294 52.7337 53.7176 51.7977 53.2485 50.7352C52.4359 48.8437 50.7648 44.9272 50.8773 43.7923C50.9897 42.6574 54.2504 43.7923 54.2504 43.7923Z" fill="black"/>
<path d="M84.4971 90.7206C84.4936 93.4 83.7219 95.9743 82.3426 97.9072C80.9633 99.84 79.083 100.982 77.0932 101.096C75.1035 101.21 73.1578 100.286 71.6616 98.518C70.1654 96.7496 69.2341 94.2726 69.0616 91.6033C69.0504 91.4343 69.042 91.2653 69.0382 91.0989V91.0901C69.0345 90.9648 69.0326 90.8387 69.0326 90.7118C69.0326 87.9527 69.8472 85.3067 71.2973 83.3557C72.7474 81.4048 74.7141 80.3087 76.7648 80.3087C78.8156 80.3087 80.7823 81.4048 82.2324 83.3557C83.6824 85.3067 84.4971 87.9527 84.4971 90.7118V90.7206Z" fill="#65617D"/>
<path d="M76.7648 96.3887C79.0941 96.3887 80.9824 93.8482 80.9824 90.7143C80.9824 87.5804 79.0941 85.0399 76.7648 85.0399C74.4355 85.0399 72.5472 87.5804 72.5472 90.7143C72.5472 93.8482 74.4355 96.3887 76.7648 96.3887Z" fill="#DCE0ED"/>
<path d="M76.7649 94.1189C78.1625 94.1189 79.2954 92.5946 79.2954 90.7143C79.2954 88.834 78.1625 87.3097 76.7649 87.3097C75.3673 87.3097 74.2343 88.834 74.2343 90.7143C74.2343 92.5946 75.3673 94.1189 76.7649 94.1189Z" fill="#65617D"/>
<path d="M56.4586 70.9587L37.8393 71.4631V67.7709C38.0061 64.7988 40.2761 63.756 42.3381 63.4294C43.9501 63.1832 45.5822 63.3479 47.1489 63.9149C51.0994 65.3221 53.6159 65.5945 54.8559 65.621C55.1281 65.6265 55.3905 65.7582 55.5988 65.9939C55.8071 66.2296 55.9486 66.5549 55.9993 66.9147C56.0584 67.3371 56.1165 67.7974 56.1708 68.2513C56.2121 68.6069 56.2514 68.9575 56.287 69.2841C56.3901 70.2248 56.4586 70.9587 56.4586 70.9587Z" fill="#65617D"/>
<path d="M71.3129 91.3864H32.6339C32.3352 91.3905 32.0423 91.2763 31.7915 91.0582C31.5407 90.84 31.3431 90.5275 31.2233 90.1595C30.9318 89.2226 31.3395 88.6249 31.7744 88.2743C32.6644 87.5646 33.339 86.4542 33.6789 85.1395C34.0913 83.5003 34.4943 80.9355 34.6527 76.9281C34.8158 72.7833 35.9311 70.7342 37.1364 69.7406C38.6931 68.4594 40.3999 68.9398 40.3999 68.9398L56.0827 69.1088C56.3619 69.2791 56.6201 69.5058 56.8485 69.7809C58.2459 71.5311 56.2083 73.816 56.2083 73.816C51.8342 80.0364 55.1455 86.3412 55.1455 86.3412H63.1702C64.6695 86.3517 66.1357 85.7478 67.3737 84.6099C68.4581 83.6011 68.8733 82.6264 69.0401 82.0363C69.1638 81.5849 69.2894 81.1347 69.4394 80.6984C71.5444 74.5562 69.0054 64.5643 67.9098 60.828C67.638 59.8987 67.4552 59.3565 67.4552 59.3565L69.9717 59.1043L71.565 58.9416H71.581C75.0881 67.0799 76.3918 75.4427 76.8295 81.6391C76.8708 82.2229 76.9045 82.7891 76.9317 83.3326C76.9813 84.3659 76.8728 85.4019 76.6128 86.3765C76.3528 87.3511 75.9469 88.2435 75.4202 88.9985C74.8935 89.7534 74.2572 90.3549 73.5507 90.7657C72.8442 91.1764 72.0826 91.3877 71.3129 91.3864V91.3864Z" fill="#F55555"/>
<path opacity="0.1" d="M56.288 69.2841H37.8393V68.2513H56.1718C56.213 68.6006 56.2524 68.9512 56.288 69.2841Z" fill="black"/>
<path opacity="0.1" d="M56.8494 69.7885H37.2854C37.2345 69.7887 37.1841 69.775 37.1373 69.7481C38.6941 68.467 40.4008 68.9474 40.4008 68.9474L56.0837 69.1164C56.3628 69.2867 56.621 69.5134 56.8494 69.7885Z" fill="black"/>
<path d="M57.0125 68.4973H30.4398C30.2281 68.4973 30.0564 68.7282 30.0564 69.013V69.0142C30.0564 69.2991 30.2281 69.53 30.4398 69.53H57.0125C57.2242 69.53 57.3958 69.2991 57.3958 69.0142V69.013C57.3958 68.7282 57.2242 68.4973 57.0125 68.4973Z" fill="#DCE0ED"/>
<path opacity="0.1" d="M76.8295 81.6416C75.9382 82.9455 75.2821 83.4587 75.313 82.083C75.4068 77.9217 69.9708 59.108 69.9708 59.108L71.5781 58.9441C75.0862 67.0761 76.3909 75.4389 76.8295 81.6416Z" fill="black"/>
<path opacity="0.1" d="M84.4502 89.5744C83.5271 89.872 82.3883 90.1746 80.9824 90.4571C80.4595 90.5605 79.8971 90.6597 79.2954 90.7547C77.8586 90.9842 76.1969 91.1847 74.2774 91.3385C73.7338 91.3822 73.1693 91.4221 72.5838 91.4583C71.4872 91.5255 70.3135 91.5768 69.0626 91.6121L69.0392 91.1077V91.0989C70.7871 90.1494 73.5379 87.6161 73.9803 81.0174C75.085 80.4447 76.2726 80.2207 77.4518 80.3627C78.631 80.5047 79.7702 81.0089 80.7817 81.8365C81.7932 82.6641 82.6501 83.793 83.2862 85.1363C83.9224 86.4796 84.321 88.0014 84.4512 89.5845L84.4502 89.5744Z" fill="black"/>
<path d="M67.5808 91.3864C67.5808 91.3864 76.4565 90.0901 73.3992 71.8956C73.3992 71.8956 77.7846 77.3051 80.5129 80.3113C83.2412 83.3174 88.1046 87.4623 88.1046 87.4623C88.1046 87.4623 85.201 91.1128 67.5808 91.3864Z" fill="#F55555"/>
<path opacity="0.1" d="M67.5808 91.3864C67.5808 91.3864 76.4565 90.0901 73.3992 71.8956C73.3992 71.8956 77.7846 77.3051 80.5129 80.3113C83.2412 83.3174 88.1046 87.4623 88.1046 87.4623C88.1046 87.4623 85.201 91.1128 67.5808 91.3864Z" fill="white"/>
<path d="M43.8686 101.117C48.139 101.117 51.6008 96.4597 51.6008 90.7143C51.6008 84.9689 48.139 80.3113 43.8686 80.3113C39.5982 80.3113 36.1363 84.9689 36.1363 90.7143C36.1363 96.4597 39.5982 101.117 43.8686 101.117Z" fill="#65617D"/>
<path d="M43.8686 96.3887C46.1979 96.3887 48.0862 93.8482 48.0862 90.7143C48.0862 87.5804 46.1979 85.0399 43.8686 85.0399C41.5393 85.0399 39.651 87.5804 39.651 90.7143C39.651 93.8482 41.5393 96.3887 43.8686 96.3887Z" fill="#DCE0ED"/>
<path d="M43.8686 94.1189C45.2661 94.1189 46.3991 92.5946 46.3991 90.7143C46.3991 88.834 45.2661 87.3097 43.8686 87.3097C42.471 87.3097 41.338 88.834 41.338 90.7143C41.338 92.5946 42.471 94.1189 43.8686 94.1189Z" fill="#65617D"/>
<path opacity="0.1" d="M52.5381 87.5896C52.5381 80.8724 48.5726 75.4263 43.6811 75.4263C38.7897 75.4263 34.8242 80.8724 34.8242 87.5896C34.8242 87.8738 34.8314 88.155 34.8457 88.4332H52.5165C52.5309 88.155 52.5381 87.8738 52.5381 87.5896Z" fill="black"/>
<path d="M52.21 87.3803C52.21 80.9115 48.3917 75.6671 43.6811 75.6671C38.9705 75.6671 35.1522 80.9115 35.1522 87.3803C35.1522 87.6539 35.1597 87.9238 35.1728 88.1924H52.1894C52.2025 87.9238 52.21 87.6539 52.21 87.3803Z" fill="#F55555"/>
<path opacity="0.1" d="M52.21 87.3803C52.21 87.5682 52.21 87.7586 52.1997 87.9402C52.1997 88.0247 52.1932 88.1079 52.1894 88.1924H35.1728C35.1728 88.1079 35.1653 88.0247 35.1625 87.9402C35.156 87.7548 35.1522 87.5619 35.1522 87.3803C35.1522 80.9115 38.9705 75.6671 43.6811 75.6671C48.3917 75.6671 52.21 80.9115 52.21 87.3803Z" fill="white"/>
<path opacity="0.1" d="M52.1997 87.9465C52.1997 88.031 52.1932 88.1142 52.1894 88.1987H35.1728C35.1728 88.1142 35.1653 88.031 35.1625 87.9465H52.1997Z" fill="black"/>
<path opacity="0.1" d="M53.3348 88.4445H32.4211C31.8688 88.4445 31.4211 89.0466 31.4211 89.7894C31.4211 90.5321 31.8688 91.1342 32.4211 91.1342H53.3348C53.8871 91.1342 54.3348 90.5321 54.3348 89.7894C54.3348 89.0466 53.8871 88.4445 53.3348 88.4445Z" fill="black"/>
<path d="M53.3348 88.1924H32.4211C31.8688 88.1924 31.4211 88.7945 31.4211 89.5372C31.4211 90.2799 31.8688 90.882 32.4211 90.882H53.3348C53.8871 90.882 54.3348 90.2799 54.3348 89.5372C54.3348 88.7945 53.8871 88.1924 53.3348 88.1924Z" fill="#DCE0ED"/>
<path opacity="0.1" d="M75.3041 70.6502C75.8691 70.3065 75.8058 68.4763 75.1626 66.5625C74.5194 64.6486 73.54 63.3758 72.9749 63.7195C72.4099 64.0633 72.4732 65.8934 73.1164 67.8072C73.7596 69.7211 74.739 70.9939 75.3041 70.6502Z" fill="black"/>
<path d="M75.3977 70.5237C75.9628 70.18 75.8994 68.3498 75.2562 66.436C74.6131 64.5221 73.6336 63.2493 73.0686 63.593C72.5035 63.9368 72.5669 65.7669 73.2101 67.6807C73.8532 69.5946 74.8327 70.8674 75.3977 70.5237Z" fill="#DCE0ED"/>
<path opacity="0.1" d="M71.5641 58.9441V60.9201H68.7055C68.4393 60.9204 68.1735 60.8917 67.9107 60.8343C67.6389 59.905 67.4561 59.3628 67.4561 59.3628L69.9726 59.1106L71.5641 58.9441Z" fill="black"/>
<path d="M71.5641 60.6628H68.7055C66.1946 60.6628 64.1599 58.1409 64.1599 55.0174V54.4941C64.1599 51.377 66.1946 48.85 68.7055 48.85L71.5641 49.1993V60.6628Z" fill="#F55555"/>
<path d="M66.8544 52.1916C66.8544 52.1916 68.5649 53.4211 67.5808 55.5017C67.5808 55.5017 66.3736 58.1648 64.4757 57.9126L63.785 52.1916C63.785 52.1916 66.0578 51.9079 66.8544 52.1916Z" fill="#F55555"/>
<path opacity="0.1" d="M66.1975 52.0806C66.4694 52.0945 66.7355 52.1903 66.9762 52.361C67.2169 52.5316 67.4261 52.7728 67.5883 53.0667C67.8929 53.6342 68.0748 54.4614 67.5827 55.5017C67.5827 55.5017 66.3755 58.1648 64.4776 57.9126L63.7869 52.1916C63.7869 52.1916 65.2087 52.0088 66.1975 52.0806Z" fill="black"/>
<path opacity="0.1" d="M71.4704 49.1993H72.0215C72.4843 49.1993 72.9282 49.4467 73.2555 49.887C73.5827 50.3274 73.7666 50.9246 73.7666 51.5473V58.3162C73.7666 58.9389 73.5827 59.5361 73.2555 59.9764C72.9282 60.4167 72.4843 60.6641 72.0215 60.6641H71.4704V49.1993Z" fill="black"/>
<path d="M71.5641 49.1993H72.1152C72.578 49.1993 73.0219 49.4467 73.3492 49.887C73.6765 50.3274 73.8603 50.9246 73.8603 51.5473V58.3162C73.8603 58.9389 73.6765 59.5361 73.3492 59.9764C73.0219 60.4167 72.578 60.6641 72.1152 60.6641H71.5641V49.1993Z" fill="#DCE0ED"/>
<path d="M51.269 63.9224C51.269 63.9224 51.7105 64.1393 52.3 64.442C53.2372 64.9274 54.5587 65.6361 55.018 66.0245C55.4772 66.4129 57.1896 67.0509 58.4717 67.4998C59.4223 67.8311 60.4009 67.9934 61.3828 67.9828C62.38 67.9702 63.5881 67.9575 63.9218 67.9575C63.9802 67.9569 64.0385 67.9628 64.0961 67.9752C64.4467 68.0534 64.4326 68.3699 64.4242 68.4455V68.4619C62.3622 70.1428 59.8626 77.667 59.707 78.928C59.5899 79.8737 58.5598 82.4953 58.0518 83.7487C57.8813 84.1686 57.7707 84.4347 57.7707 84.4347L58.3958 85.4006L60.2075 86.4938L61.9255 87.5026C61.9255 87.5026 63.7381 87.6287 63.769 87.5026C63.8 87.3765 63.8 86.0739 63.8 86.0739C63.5794 85.8823 63.3701 85.6682 63.1739 85.4333C62.7582 84.9463 62.3721 84.4155 62.0192 83.8458C61.0201 82.2481 63.0192 79.1802 63.0192 79.1802L66.8619 72.4554C66.8619 72.4554 67.174 71.6989 68.6736 68.6725C70.1732 65.6462 68.6736 64.0069 68.6736 64.0069L66.0344 62.5329C61.4569 60.2278 55.9355 58.3805 55.9355 58.3805L55.8568 58.3666L54.6862 58.1699L51.269 63.9224Z" fill="#EFB7B9"/>
<path d="M63.0624 86.4938C63.0624 86.4938 63.3904 87.0146 63.1448 87.0613C62.8993 87.1079 62.2545 86.92 62.2545 86.92L58.1653 84.0198C58.1653 84.0198 57.7201 83.5936 57.6151 84.4296C57.5102 85.2656 57.4389 85.1862 57.4389 85.1862C57.4389 85.1862 56.9 86.746 57.4389 87.0688C57.9778 87.3916 61.2151 88.669 61.2151 88.669C61.2151 88.669 65.9135 90.104 66.3586 88.4483C66.8038 86.7927 65.562 87.0777 65.562 87.0777C65.562 87.0777 64.0155 86.5733 63.4879 85.5645C63.4841 85.5645 62.7231 85.8482 63.0624 86.4938Z" fill="#444053"/>
<path opacity="0.05" d="M68.6699 64.0069L66.0306 62.5329C61.4531 60.2278 55.9318 58.3805 55.9318 58.3805L55.8531 58.3666L54.6825 58.1699L51.269 63.9224C51.269 63.9224 51.7105 64.1393 52.3 64.442C53.2372 64.9274 54.5587 65.6361 55.018 66.0245C55.4772 66.4129 57.1896 67.0509 58.4717 67.4998C59.4223 67.8311 60.4009 67.9934 61.3828 67.9828C62.38 67.9702 63.5881 67.9576 63.9218 67.9576C63.9802 67.9569 64.0385 67.9628 64.0961 67.9752C64.4467 68.0534 64.4326 68.3699 64.4242 68.4455V68.4619C62.3622 70.1428 59.8626 77.667 59.707 78.928C59.5899 79.8737 58.5598 82.4953 58.0518 83.7487L57.9834 83.9177C57.8475 83.8874 57.6779 83.953 57.6179 84.4296C57.512 85.2644 57.4417 85.1862 57.4417 85.1862C57.4417 85.1862 56.9028 86.746 57.4417 87.0688C57.9806 87.3916 61.215 88.669 61.215 88.669C61.215 88.669 65.9134 90.104 66.3586 88.4483C66.8038 86.7927 65.562 87.0777 65.562 87.0777C65.562 87.0777 64.0155 86.5733 63.4879 85.5645C63.4411 85.5828 63.3954 85.6056 63.351 85.6326C63.2957 85.5721 63.2367 85.5065 63.1739 85.4334C62.7582 84.9463 62.3721 84.4155 62.0192 83.8458C61.0201 82.2481 63.0192 79.1802 63.0192 79.1802L66.8619 72.4554C66.8619 72.4554 67.174 71.6989 68.6736 68.6725C70.1732 65.6462 68.6699 64.0069 68.6699 64.0069Z" fill="black"/>
<path d="M48.1218 35.8003L48.2643 36.0424L48.3439 36.1773L48.8407 37.0184C48.8407 37.0184 50.0263 37.5303 51.0657 37.8619C52.1482 38.2062 53.0714 38.3562 52.3375 37.5328C51.882 37.0221 51.852 36.1672 52.0179 35.2505C52.1576 34.545 52.3577 33.8638 52.614 33.2203C52.6509 33.1245 52.6874 33.0312 52.7237 32.9404C52.9565 32.3611 53.2143 31.8006 53.496 31.262C52.8296 30.6412 52.1384 30.0699 51.4256 29.5509C50.5671 28.9532 49.8623 28.6922 50.3093 29.8749C50.5961 30.6315 50.5024 31.4814 50.2343 32.2947C50.2137 32.3591 50.1912 32.4208 50.1678 32.4877C49.9272 33.1179 49.63 33.7062 49.283 34.2392C48.9275 34.8004 48.5392 35.3224 48.1218 35.8003V35.8003Z" fill="#EFB7B9"/>
<path d="M54.0583 55.0086L54.6938 55.7892L55.3076 58.9668H54.2832L53.152 56.9871L54.0583 55.0086Z" fill="#444053"/>
<path opacity="0.1" d="M53.152 56.9871L53.8362 58.1837L54.2832 58.9668H55.3076L55.2027 58.4233L54.7556 56.1082L54.6938 55.7892L54.0583 55.0086L53.1904 56.9026L53.152 56.9871Z" fill="black"/>
<path opacity="0.1" d="M53.152 56.9871L53.8362 58.1837L54.2832 58.9668H55.3076L55.2027 58.4233L54.7556 56.1082L54.6938 55.7892L54.0583 55.0086L53.1904 56.9026L53.152 56.9871Z" fill="black"/>
<path d="M49.747 65.3486C49.747 65.3486 50.1884 65.5655 50.7779 65.8681C51.7152 66.3536 53.0367 67.0623 53.4959 67.4506C53.9552 67.839 55.6675 68.4771 56.9497 68.926C57.9002 69.2577 58.8789 69.4204 59.8608 69.4102C60.858 69.3976 62.0661 69.385 62.3998 69.385C62.4581 69.3843 62.5164 69.3902 62.5741 69.4026C62.9246 69.4808 62.9105 69.7973 62.9021 69.873V69.8894C60.8402 71.5702 58.3406 79.0944 58.185 80.3554C58.0678 81.3011 57.0378 83.9227 56.5298 85.1761C56.3592 85.596 56.2486 85.8621 56.2486 85.8621L56.8738 86.828L58.6845 87.92L60.4025 88.9288C60.4025 88.9288 62.2151 89.0549 62.246 88.9288C62.277 88.8027 62.277 87.5001 62.277 87.5001C62.0564 87.3085 61.8471 87.0943 61.6509 86.8595C61.2352 86.3725 60.8491 85.8416 60.4962 85.2719C59.4971 83.6743 61.4962 80.6064 61.4962 80.6064L65.3389 73.8816C65.3389 73.8816 65.651 73.125 67.1506 70.0987C68.6502 67.0723 67.1506 65.4331 67.1506 65.4331L64.7457 63.5832C60.9967 60.5153 55.7163 58.7499 55.7163 58.7499L55.6375 58.7361L54.4669 58.5394L49.747 65.3486Z" fill="#EFB7B9"/>
<path opacity="0.1" d="M56.2477 85.8608L56.8728 86.8267L58.6845 87.92L60.4025 88.9288C60.4025 88.9288 62.2151 89.0549 62.246 88.9288C62.277 88.8027 62.277 87.5001 62.277 87.5001C62.0564 87.3085 61.8471 87.0943 61.6509 86.8595C61.4569 86.9995 61.2366 87.2618 61.4494 87.6678C61.4494 87.6678 61.7774 88.1873 61.5319 88.2352C61.2863 88.2831 60.6415 88.094 60.6415 88.094L56.5523 85.1938L56.5289 85.1723C56.3564 85.5948 56.2477 85.8608 56.2477 85.8608Z" fill="black"/>
<path d="M61.5403 87.92C61.5403 87.92 61.8683 88.4395 61.6218 88.4874C61.3753 88.5353 60.7315 88.3449 60.7315 88.3449L56.6432 85.4447C56.6432 85.4447 56.198 85.0198 56.0921 85.8545C55.9862 86.6893 55.9168 86.6111 55.9168 86.6111C55.9168 86.6111 55.3779 88.1722 55.9168 88.495C56.4557 88.8178 59.6892 90.0901 59.6892 90.0901C59.6892 90.0901 64.3867 91.5238 64.8319 89.8695C65.2771 88.2151 64.0352 88.4975 64.0352 88.4975C64.0352 88.4975 62.4888 87.9931 61.962 86.9843C61.9649 86.9894 61.2001 87.2731 61.5403 87.92Z" fill="#444053"/>
<path opacity="0.1" d="M49.9963 31.9745C50.538 32.4788 51.3646 33.277 52.0704 33.277C52.2524 33.277 52.4342 33.2576 52.614 33.219C52.875 32.5404 53.1697 31.8862 53.4959 31.2608C53.4959 31.2608 49.3721 27.3934 50.3093 29.8737C50.6186 30.6984 50.314 31.1031 49.9963 31.9745Z" fill="black"/>
<path d="M48.6963 28.4854C48.6959 29.2424 48.8364 29.9876 49.105 30.6528C49.3737 31.318 49.762 31.8821 50.2343 32.2935C50.3404 32.3865 50.4506 32.4708 50.5642 32.5457C51.221 32.9865 51.9667 33.1271 52.6882 32.9463C53.4097 32.7655 54.0678 32.2731 54.5625 31.5438C55.0573 30.8144 55.3618 29.8879 55.4299 28.9047C55.498 27.9216 55.326 26.9353 54.9399 26.0955C54.5538 25.2558 53.9747 24.6083 53.2904 24.2512C52.6062 23.8942 51.854 23.847 51.148 24.117C50.442 24.3869 49.8207 24.9592 49.3783 25.7471C48.9359 26.5349 48.6964 27.4954 48.6963 28.4828V28.4854Z" fill="#EFB7B9"/>
<path opacity="0.1" d="M49.747 65.3486C49.747 65.3486 50.1884 65.5655 50.7779 65.8681C51.1482 65.4293 51.5277 65.0056 51.6861 64.9287C52.0301 64.7597 53.1548 63.877 53.1239 63.6249C53.0929 63.3727 53.5925 62.4068 54.0292 62.2378C54.466 62.0688 54.2167 61.1874 54.2167 61.1874C54.2167 61.1874 55.0602 60.7675 55.2701 60.1786C55.4801 59.5897 56.123 58.8332 55.9037 58.876C55.8086 58.8553 55.7179 58.8075 55.6375 58.7361L54.4669 58.5394L49.747 65.3486Z" fill="black"/>
<path d="M47.1845 63.8354C47.1845 63.8354 48.6223 65.4331 48.6888 66.1468C48.7554 66.8605 49.7151 66.8202 49.7151 66.8202C49.7151 66.8202 51.1528 64.9703 51.4959 64.8026C51.8389 64.6349 52.9645 63.7509 52.9336 63.4988C52.9027 63.2466 53.4022 62.2807 53.839 62.1117C54.2757 61.9427 54.0264 61.0613 54.0264 61.0613C54.0264 61.0613 54.8699 60.6414 55.0799 60.0525C55.2898 59.4636 55.9328 58.7071 55.7135 58.7499C55.6516 58.7613 55.4538 58.6238 55.2027 58.4233C54.8943 58.1711 54.5035 57.8294 54.1848 57.5407C53.8474 57.233 53.5897 56.9884 53.5897 56.9884C53.5897 56.9884 53.4425 56.9531 53.1904 56.9039C51.8305 56.6391 47.401 55.9632 46.3729 58.1648C46.2358 58.4558 46.1331 58.7735 46.0683 59.1068C45.6081 61.4522 47.1845 63.8354 47.1845 63.8354Z" fill="#444053"/>
<path opacity="0.1" d="M48.6879 58.7386C48.6879 58.7386 47.2202 59.8533 46.6728 59.8533C46.1255 59.8533 48.6879 58.7386 48.6879 58.7386Z" fill="black"/>
<path opacity="0.1" d="M49.6683 59.5897C49.6683 59.5897 47.4826 60.5783 47.4826 61.3551C47.4826 62.1319 47.2783 59.2745 49.6683 59.5897Z" fill="black"/>
<path opacity="0.1" d="M54.901 55.1373L54.8699 55.194C54.8841 55.1794 54.8949 55.1597 54.901 55.1373V55.1373Z" fill="black"/>
<path opacity="0.1" d="M48.1218 35.8002L48.2643 36.0423L48.3439 36.1773L48.8407 37.0183C48.8407 37.0183 50.0263 37.5303 51.0657 37.8619C52.1482 38.2062 53.0714 38.3562 52.3375 37.5328C51.882 37.0221 51.852 36.1672 52.0179 35.2504L51.9851 35.1937C51.9851 35.1937 52.0179 36.0436 51.644 36.06C51.1397 36.0814 51.1332 35.8532 50.6683 35.5896C50.0694 35.2492 49.4555 34.6805 49.283 34.2379C48.9276 34.7995 48.5392 35.322 48.1218 35.8002Z" fill="black"/>
<path opacity="0.1" d="M46.0683 59.103C46.324 59.2501 46.6119 59.2591 46.8724 59.1282C47.8406 58.7071 49.3721 57.6932 50.09 58.1371C50.6655 58.4927 52.9833 58.4826 53.839 58.1838C54.0517 58.1094 54.1736 58.0173 54.1548 57.9089C54.1427 57.784 54.154 57.657 54.1876 57.5394C54.287 57.1119 54.5569 56.518 54.7584 56.1082L54.6966 55.7892L54.0611 55.0086L53.1932 56.9001C51.8333 56.6353 47.4039 55.9594 46.3757 58.1611C46.2377 58.4518 46.134 58.7695 46.0683 59.103Z" fill="black"/>
<path d="M45.4356 58.1194C45.4356 58.1194 45.8105 59.2959 46.7787 58.876C47.7469 58.4561 49.2783 57.441 49.9963 57.8849C50.7142 58.3288 54.152 58.2027 54.0583 57.6567C53.9646 57.1107 54.9018 55.3869 54.9018 55.3869C54.9018 55.3869 54.3901 55.2608 54.0733 53.0125C54.0264 52.6847 53.9842 52.3114 53.9486 51.8877C53.8712 51.02 53.853 50.1446 53.8943 49.2725C54.0208 46.8388 54.6544 45.8451 54.6544 45.8451C54.6544 45.8451 55.5288 44.501 54.779 42.6511C54.3863 41.6814 52.8014 38.9943 52.7799 37.7964C52.7602 36.7094 51.9879 35.4459 51.9879 35.4459C51.9879 35.4459 52.0207 36.2958 51.6467 36.3122C51.1425 36.3336 51.136 36.1054 50.6711 35.8419C49.9878 35.4535 49.2858 34.7688 49.2399 34.311C49.2399 34.311 46.3757 34.1181 45.7506 38.0271C45.1254 41.9361 45.3447 44.0798 45.4385 44.5426C45.5322 45.0053 46.3438 50.9735 45.6878 53.4955C45.0317 56.0174 45.4356 58.1194 45.4356 58.1194Z" fill="#A36468"/>
<path opacity="0.1" d="M50.1059 51.2522C50.6225 52.4247 51.3136 53.4409 52.136 54.2369C52.6844 54.243 53.232 54.2923 53.7762 54.3844C53.7293 54.0566 53.6824 53.6834 53.6515 53.2597C53.5741 52.392 53.5559 51.5166 53.5971 50.6444C53.5072 50.5837 53.4278 50.4978 53.3645 50.3926C53.3011 50.2873 53.2552 50.1651 53.2297 50.0341C53.0732 49.3191 51.6795 45.9145 51.6795 45.9145C51.6795 45.9145 48.4189 44.7796 48.3055 45.9145C48.1921 47.0494 49.2933 49.3607 50.1059 51.2522Z" fill="black"/>
<path d="M51.1865 43.7923C51.1865 43.7923 53.1548 48.8021 53.3075 49.5171C53.3473 49.7156 53.4331 49.8918 53.5524 50.0202C53.6718 50.1485 53.8184 50.2223 53.9711 50.2308C53.9711 50.2308 55.9318 50.8613 56.4004 50.9458C56.8691 51.0303 60.9339 51.4918 60.9339 51.4918C60.9339 51.4918 61.9648 51.5347 62.0895 51.0303C62.2038 50.5688 64.1955 48.1439 65.3483 50.2598C65.4546 50.4555 65.5251 50.6822 65.5541 50.9215C65.583 51.1607 65.5697 51.4058 65.5151 51.6368C65.3033 52.5447 64.8684 53.986 64.4017 53.0894C63.7456 51.8285 62.9827 52.1828 62.9827 52.8549C62.9827 53.527 61.933 53.2773 61.5899 53.3719C61.4025 53.4236 60.7577 53.6543 60.2 53.8561C59.5512 54.0919 58.8865 54.2402 58.2159 54.2987C57.109 54.3958 55.4772 54.4765 54.899 54.1827C54.2017 53.8258 52.9842 53.7439 52.4621 53.725C52.2895 53.7193 52.1228 53.6389 51.987 53.4955C51.264 52.7336 50.6525 51.7976 50.1837 50.7352C49.3711 48.8437 47.7 44.9272 47.8125 43.7923C47.9249 42.6574 51.1865 43.7923 51.1865 43.7923Z" fill="#EFB7B9"/>
<path opacity="0.1" d="M50.5305 36.8506C50.5305 36.8506 51.5849 39.2049 52.0732 40.8857C52.5615 42.5666 53.1548 45.5097 53.1548 45.5097L50.2175 45.047L49.9682 44.5009C49.9682 44.5009 47.8706 46.2663 48.1209 47.0229C48.3711 47.7795 47.5585 45.888 47.6213 43.7444C47.6841 41.6007 47.3954 37.7749 47.6213 36.8506C47.8472 35.9263 49.8398 36.1357 50.5305 36.8506Z" fill="black"/>
<path d="M47.625 43.4922C47.5622 45.6358 48.3748 47.5273 48.1246 46.7707C47.8743 46.0141 49.9719 44.2488 49.9719 44.2488L50.2184 44.7948L53.1548 45.2575C53.1548 45.2575 52.5615 42.3144 52.0732 40.6336C51.7799 39.6826 51.4443 38.7562 51.0685 37.8594C50.7676 37.1243 50.5305 36.5984 50.5305 36.5984C50.1265 36.1785 49.269 35.9327 48.5848 35.9907C48.4782 35.9988 48.372 36.0161 48.267 36.0424C47.9859 36.1168 47.7591 36.2605 47.6588 36.4875C47.6435 36.5226 47.6309 36.5598 47.6213 36.5984C47.3964 37.5227 47.685 41.3485 47.625 43.4922Z" fill="#A36468"/>
<path opacity="0.1" d="M46.3129 49.3607C46.3129 49.3607 47.5548 51.662 47.9297 51.7251C47.9269 51.7301 46.3335 51.2522 46.3129 49.3607Z" fill="black"/>
<path opacity="0.1" d="M46.3129 52.6393C46.3129 52.6393 48.656 55.8232 49.4058 55.8547C50.1556 55.8863 46.3129 52.6393 46.3129 52.6393Z" fill="black"/>
<path opacity="0.1" d="M46.3129 53.9683C46.3129 53.9683 47.8125 56.3326 47.9062 56.3326C48 56.3326 46.2867 55.513 46.3129 53.9683Z" fill="black"/>
<path opacity="0.1" d="M47.656 36.4875C47.897 36.4391 48.1299 36.3341 48.3439 36.1773C48.4245 36.1205 48.5042 36.0575 48.582 35.9906C48.8893 35.7139 49.1756 35.3972 49.4367 35.0449C49.8679 34.4813 50.2981 33.8659 50.4761 33.0929C50.5162 32.9148 50.5456 32.7326 50.5642 32.5482C50.6711 31.5785 50.5811 30.5079 51.0966 29.8485C51.1935 29.7255 51.3046 29.6245 51.4256 29.5496C52.1566 29.0818 53.2166 29.3844 53.7621 28.5408C54.1089 28.0062 54.1004 27.2635 54.3666 26.6822C54.4828 26.43 54.6965 26.2118 54.8859 25.9798C54.6101 25.4151 54.2442 24.9403 53.8147 24.5901C53.3853 24.2399 52.9031 24.023 52.4035 23.9554C51.9038 23.8878 51.3992 23.9711 50.9265 24.1993C50.4538 24.4274 50.0249 24.7946 49.6711 25.2742C49.3174 25.7537 49.0476 26.3334 48.8815 26.9711C48.7155 27.6087 48.6573 28.2882 48.7113 28.9599C48.7652 29.6317 48.93 30.2787 49.1935 30.8539C49.457 31.4291 49.8126 31.9179 50.2343 32.2846C50.2137 32.349 50.1912 32.4107 50.1678 32.4776C49.5239 34.2429 48.1218 35.7914 48.1218 35.7914L48.2642 36.0335C47.9803 36.1205 47.7563 36.2605 47.656 36.4875Z" fill="black"/>
<path d="M53.5747 28.4173C52.9401 29.3958 51.6064 28.8258 50.9082 29.7224C50.2952 30.5079 50.5389 31.8786 50.2887 32.9668C50.1106 33.7398 49.6804 34.3539 49.2493 34.9188C48.6213 35.741 47.8181 36.5757 46.9596 36.3399C46.4507 36.2 45.9521 35.688 45.46 35.9238C45.2154 36.0424 45.0401 36.3273 44.8574 36.5783C44.2365 37.4294 43.4296 37.991 42.5546 38.181C42.3815 38.2335 42.2012 38.2221 42.0325 38.1482C41.7701 38.0044 41.6286 37.6186 41.3896 37.413C40.9209 37.0095 40.3192 37.4231 39.8328 37.7838C38.4724 38.7748 36.9708 39.3646 35.4278 39.5139C33.8848 39.6633 32.3358 39.3688 30.884 38.65L31.6422 38.1457C31.481 37.7031 31.0452 37.606 30.7678 37.2819C30.1961 36.6148 30.5325 35.2807 31.1371 34.6692C31.7416 34.0576 32.5242 33.8445 33.1503 33.2733C33.2777 33.1573 33.4071 33.0034 33.4192 32.7979C33.4172 32.6469 33.3816 32.5002 33.3171 32.3767C32.9834 31.5861 32.6142 30.7374 32.6891 29.8333C32.8035 28.4463 33.9291 27.5938 34.9629 27.4967C35.9967 27.3996 37.0201 27.8183 38.0558 27.8423C38.4307 27.8511 38.8234 27.8019 39.1449 27.5409C39.5938 27.1777 39.8197 26.4854 40.0924 25.884C40.5792 24.816 41.2768 23.9508 42.1075 23.3847C43.0447 22.7479 44.1057 22.5247 45.0804 21.9976C46.0758 21.4605 46.9812 20.6106 48.0224 20.2689C49.5342 19.7645 51.1538 20.424 52.4593 21.5639C53.0882 22.1124 55.0967 23.8727 55.0836 24.9988C55.0733 25.6671 54.4275 26.029 54.1829 26.5535C53.913 27.1399 53.9214 27.8826 53.5747 28.4173Z" fill="#965D7B"/>
<g opacity="0.1">
<path opacity="0.1" d="M33.2252 31.745C33.2893 31.8688 33.3248 32.0153 33.3274 32.1661C33.3237 32.2193 33.3125 32.2711 33.2946 32.3187C33.019 31.6655 32.7322 30.9733 32.6863 30.2444C32.8082 30.7652 33.0228 31.2658 33.2252 31.745Z" fill="black"/>
<path opacity="0.1" d="M30.6759 36.6501C30.9524 36.9742 31.3883 37.0713 31.5504 37.5139L31.2823 37.693C31.1017 37.5787 30.93 37.4406 30.7697 37.2806C30.668 37.1588 30.5887 37.0069 30.538 36.8369C30.4873 36.6669 30.4665 36.4834 30.4773 36.3008C30.525 36.4343 30.5927 36.5532 30.6759 36.6501V36.6501Z" fill="black"/>
<path opacity="0.1" d="M39.741 37.1533C40.2274 36.7926 40.83 36.379 41.2977 36.7825C41.5358 36.9881 41.6782 37.3739 41.9407 37.5177C42.109 37.5917 42.2891 37.603 42.4618 37.5505C43.3371 37.3606 44.1443 36.799 44.7655 35.9478C44.9473 35.6956 45.1226 35.4119 45.3682 35.2933C45.8574 35.0575 46.356 35.5695 46.8677 35.7095C47.7263 35.9453 48.5285 35.1105 49.1574 34.2883C49.5886 33.7247 50.0178 33.1093 50.1959 32.3364C50.4471 31.2481 50.2034 29.8775 50.8164 29.0919C51.5165 28.1953 52.8474 28.7653 53.4828 27.7868C53.8286 27.2521 53.8212 26.5094 54.0873 25.9281C54.3123 25.4376 54.8952 25.0895 54.9777 24.4982C55.0421 24.6525 55.0778 24.8256 55.0817 25.0025C55.0714 25.6709 54.4257 26.0328 54.1811 26.5573C53.9149 27.1386 53.9224 27.8813 53.5765 28.416C52.9411 29.3945 51.6083 28.8245 50.9101 29.7211C50.2971 30.5067 50.5408 31.8774 50.2896 32.9656C50.1115 33.7386 49.6823 34.3526 49.2512 34.9176C48.6223 35.7397 47.82 36.5745 46.9615 36.3387C46.4516 36.1987 45.953 35.6868 45.4619 35.9226C45.2163 36.0411 45.0411 36.3261 44.8592 36.577C44.2381 37.4282 43.4308 37.9898 42.5555 38.1797C42.3828 38.2322 42.2027 38.2209 42.0344 38.1469C41.772 38.0032 41.6295 37.6173 41.3914 37.4118C40.9228 37.0083 40.3211 37.4219 39.8347 37.7825C38.4743 38.7735 36.9727 39.3633 35.4297 39.5127C33.8867 39.662 32.3377 39.3675 30.8859 38.6488L31.4098 38.2995C32.7862 38.8558 34.2307 39.0409 35.6604 38.8442C37.09 38.6475 38.4768 38.0729 39.741 37.1533V37.1533Z" fill="black"/>
</g>
<path opacity="0.1" d="M62.9021 69.8717L63.6903 69.3585V69.158C63.6903 69.0811 63.0614 69.2513 62.5741 69.3963C62.9246 69.4795 62.9105 69.796 62.9021 69.8717Z" fill="black"/>
<path d="M63.5872 58.2758C64.636 58.2758 65.4861 56.8842 65.4861 55.1675C65.4861 53.4508 64.636 52.0592 63.5872 52.0592C62.5385 52.0592 61.6884 53.4508 61.6884 55.1675C61.6884 56.8842 62.5385 58.2758 63.5872 58.2758Z" fill="#F55555"/>
<path d="M45.311 51.1223L42.2584 55.1726L32.2233 54.9367L34.9826 51.1223H45.311Z" fill="#DDA2A6"/>
<path d="M45.311 64.9779V51.1223L42.2584 55.1726V68.7305L45.311 64.9779Z" fill="#B77B7F"/>
<path d="M32.2233 54.9368V68.7305H42.2584V55.1726L32.2233 54.9368Z" fill="#DDA2A6"/>
<path opacity="0.3" d="M32.2233 54.9368V68.7305H42.2584V55.1726L32.2233 54.9368Z" fill="white"/>
<path d="M41.443 58.9693L33.9797 57.2456L33.0069 63.8379L40.6904 65.737L41.443 58.9693Z" fill="#DCE0ED"/>
<path d="M39.9687 60.509L34.9516 59.4485L34.826 60.3287L39.8431 61.4736L39.9687 60.509Z" fill="#F55555"/>
<path d="M38.5891 62.3916L35.7352 61.8343L35.6096 62.8115L38.5891 63.3739V62.3916Z" fill="#F55555"/>
<path d="M44.0767 58.3943L43.9408 52.9394L43.1563 53.9809L43.2931 59.4485L44.0767 58.3943Z" fill="#65617D"/>
<path d="M33.9732 52.5182L43.6164 52.6935L43.9407 52.9394L43.1563 53.9809L42.8854 53.7666L33.334 53.4021L33.9732 52.5182Z" fill="#65617D"/>
</svg>
