<svg width="99" height="24" viewBox="0 0 99 24" fill="none" xmlns="http://www.w3.org/2000/svg">
<path d="M4.07812 4.05078V20.0293L1.19531 21.1367L0.984375 23H12.8496L13.1133 21.0137L9.07031 19.9414V14.1055H12.9199L13.4824 17.2695L15.8555 16.7773L16.5586 8.9375L13.9746 9.46484L13.166 11.7852H9.07031V3.45312H16.1016L16.9277 7.21484L19.1602 7.56641L20.0391 1.13281H1.05469L0.791016 3.06641L4.07812 4.05078Z" fill="#4E4848"/>
<path d="M32.817 23L33.0455 20.7676L30.2681 19.959V0.816406L29.5474 0.113281L23.5884 0.535156L23.1841 2.71484L26.0318 4.08594V19.959L23.3599 20.75L23.1314 23H32.817Z" fill="#4E4848"/>
<path d="M44.0128 23.4746C45.5363 23.4746 46.9015 23.1172 48.1085 22.4023C49.3155 21.6758 50.2589 20.6562 50.9386 19.3438C51.6183 18.0312 51.9581 16.5195 51.9581 14.8086C51.9581 13.0977 51.6652 11.6387 51.0792 10.4316C50.4933 9.21289 49.632 8.28711 48.4952 7.6543C47.3702 7.02148 46.0109 6.70508 44.4171 6.70508C43.0695 6.70508 41.7687 7.04492 40.5148 7.72461C39.2609 8.4043 38.2355 9.38867 37.4386 10.6777C36.6417 11.9551 36.2433 13.4492 36.2433 15.1602C36.2433 16.7188 36.5128 18.125 37.0519 19.3789C37.5909 20.6211 38.4405 21.6172 39.6007 22.3672C40.7726 23.1055 42.2433 23.4746 44.0128 23.4746ZM43.714 9.46484C45.0734 9.46484 46.0284 10.168 46.5792 11.5742C47.1417 12.9805 47.423 14.6914 47.423 16.707C47.423 18.0195 47.1886 19.0508 46.7198 19.8008C46.2511 20.5391 45.5421 20.9082 44.5929 20.9082C43.257 20.9082 42.2784 20.2871 41.6573 19.0449C41.048 17.791 40.7433 16.1094 40.7433 14C40.7433 12.6055 40.9777 11.5039 41.4464 10.6953C41.9269 9.875 42.6827 9.46484 43.714 9.46484Z" fill="#4E4848"/>
<path d="M66.3005 20.5742L62.152 19.7305V14.5273C62.3512 13.6367 62.6852 12.9102 63.154 12.3477C63.6345 11.7852 64.197 11.5039 64.8415 11.5039C65.5095 11.5039 66.2477 11.7617 67.0563 12.2773C67.5602 11.8555 67.9528 11.4043 68.2341 10.9238C68.5153 10.4316 68.6559 9.875 68.6559 9.25391C68.6559 8.57422 68.4274 8.00586 67.9704 7.54883C67.5251 7.0918 66.9216 6.86328 66.1598 6.86328C65.2809 6.86328 64.4606 7.20898 63.6989 7.90039C62.9489 8.58008 62.3571 9.61719 61.9235 11.0117L61.5895 10.9238L61.9235 7.67188L61.3786 7.10938L55.6481 7.68945L55.2966 9.83398L57.9684 10.9414V19.9766L55.3317 20.9258L55.0505 22.9824H66.0895L66.3005 20.5742Z" fill="#4E4848"/>
<path d="M74.508 23.4219C75.258 23.4219 75.9553 23.2812 76.5998 23C77.2561 22.7305 77.8069 22.3906 78.2522 21.9805C78.7092 21.5703 79.0256 21.1602 79.2014 20.75L79.4123 20.8027L79.4651 21.0488C79.6291 21.7754 79.9104 22.3438 80.3088 22.7539C80.719 23.1641 81.3752 23.3691 82.2776 23.3691C82.9338 23.3691 83.4612 23.3164 83.8596 23.2109C84.2698 23.1055 84.6741 22.9297 85.0725 22.6836L85.4065 20.4336L84.7209 20.3105C84.1584 20.2051 83.76 20.0645 83.5256 19.8887C83.303 19.7012 83.1682 19.4609 83.1213 19.168C83.0745 18.875 83.051 18.3828 83.051 17.6914V12.1543C83.051 10.2793 82.6584 8.91406 81.8733 8.05859C81.0881 7.19141 79.9573 6.75781 78.4807 6.75781C77.4846 6.75781 76.4241 6.96875 75.2991 7.39062C74.1741 7.80078 73.2307 8.32812 72.469 8.97266C71.719 9.61719 71.344 10.2559 71.344 10.8887C71.344 11.7207 71.6428 12.2715 72.2405 12.541C72.8381 12.8105 73.6174 12.9453 74.5784 12.9453C74.6604 11.9141 74.7483 11.1465 74.842 10.6426C74.9358 10.1387 75.0881 9.76953 75.2991 9.53516C75.5217 9.28906 75.844 9.16602 76.2659 9.16602C77.1213 9.16602 77.7776 9.52344 78.2346 10.2383C78.6916 10.9531 78.9202 11.8438 78.9202 12.9102V14.2285C77.1623 14.2871 75.6799 14.5801 74.4729 15.1074C73.2659 15.6348 72.3577 16.3145 71.7483 17.1465C71.1506 17.9785 70.8518 18.8867 70.8518 19.8711C70.8518 21.0078 71.1858 21.8867 71.8538 22.5078C72.5334 23.1172 73.4182 23.4219 74.508 23.4219ZM78.9202 19.291C78.6155 19.5723 78.258 19.8184 77.8479 20.0293C77.4495 20.2285 77.0569 20.3281 76.6702 20.3281C76.1545 20.3281 75.7444 20.1582 75.4397 19.8184C75.1467 19.4785 75.0002 19.0918 75.0002 18.6582C75.0002 17.9785 75.2991 17.3809 75.8967 16.8652C76.5061 16.3496 77.5139 15.9746 78.9202 15.7402V19.291Z" fill="#4E4848"/>
<path d="M98.2723 23L98.5008 20.7676L95.7234 19.959V0.816406L95.0027 0.113281L89.0437 0.535156L88.6395 2.71484L91.4871 4.08594V19.959L88.8152 20.75L88.5867 23H98.2723Z" fill="#4E4848"/>
</svg>
