<svg width="99" height="102" viewBox="0 0 99 102" fill="none" xmlns="http://www.w3.org/2000/svg">
<g clip-path="url(#clip0)">
<path opacity="0.1" d="M9.9588 10.2137C9.34264 10.5677 8.71026 11.022 8.37165 11.8184C8.01302 12.6597 8.05594 13.7045 8.12271 14.6778C8.70454 23.1201 10.2373 32.0985 7.59048 39.7456C6.3057 43.4556 4.15676 46.4286 2.44753 49.7978C0.738294 53.1671 -0.552214 57.3737 0.241358 61.3372C1.21043 66.1804 4.82729 68.8655 7.26523 72.5926C8.86096 75.0294 9.97978 77.9905 11.4687 80.5541C12.9576 83.1177 14.9978 85.3761 17.3747 85.5267C20.7932 85.7446 23.5745 81.6569 26.9262 80.7099C30.3599 79.7405 33.8175 82.2077 36.6016 85.1609C39.3858 88.114 41.9182 91.692 45.1621 93.5357C48.7446 95.5736 52.7831 95.2619 56.5544 96.4863C59.9882 97.6023 63.1491 99.9757 66.558 101.241C69.967 102.506 73.9625 102.43 76.6036 99.1978C80.0459 94.9714 79.775 87.4431 81.9735 81.8524C84.0157 76.6579 88.0131 73.5568 90.7038 68.9645C95.5453 60.6993 95.387 48.0663 91.2761 39.0773C87.1651 30.0883 79.7187 24.6455 72.1045 23.2284C68.6707 22.5904 65.1349 22.6776 61.8338 21.2261C52.9977 17.3431 47.7393 3.43036 38.7182 0.535276C32.9838 -1.30188 27.4069 1.8798 22.5224 5.79581C18.2827 9.19542 14.3711 7.6792 9.9588 10.2137Z" fill="#F55555"/>
<path d="M18.5688 37.4868C18.5688 37.4868 15.3134 41.7409 11.8196 41.8677C10.3525 41.9081 8.9344 42.6066 7.77833 43.8581C7.23187 44.4562 6.72615 45.1225 6.26749 45.8484" stroke="#535461" stroke-width="2" stroke-miterlimit="10"/>
<path d="M4.06419 45.9528C4.53346 45.6226 6.32472 45.8418 6.32472 45.8418C6.32472 45.8418 5.39571 47.9748 4.92643 48.305C4.81404 48.3973 4.68917 48.4566 4.55954 48.4792C4.42992 48.5019 4.29832 48.4874 4.17289 48.4368C4.04747 48.3861 3.9309 48.3003 3.83042 48.1847C3.72994 48.069 3.64768 47.926 3.58876 47.7646C3.52983 47.6031 3.49549 47.4266 3.48786 47.246C3.48024 47.0654 3.49949 46.8845 3.54442 46.7147C3.58936 46.5448 3.65902 46.3895 3.74908 46.2584C3.83915 46.1274 3.9477 46.0233 4.068 45.9528H4.06419Z" fill="#F55555"/>
<path d="M5.94988 42.182C6.47352 42.2586 7.89089 43.7907 7.89089 43.7907C7.89089 43.7907 6.26941 44.8816 5.75053 44.8064C5.50777 44.7556 5.28851 44.5771 5.13836 44.3081C4.98822 44.0392 4.91876 43.7004 4.94444 43.3623C4.97013 43.0242 5.08897 42.7128 5.27625 42.493C5.46352 42.2731 5.7048 42.1618 5.94988 42.182Z" fill="#F55555"/>
<path d="M10.4213 39.143C10.8448 39.5749 11.5106 41.8888 11.5106 41.8888C11.5106 41.8888 9.71648 41.7 9.29299 41.2694C9.10211 41.0558 8.97801 40.7486 8.9465 40.4117C8.91499 40.0747 8.97848 39.7338 9.12379 39.46C9.26909 39.1862 9.48502 39.0004 9.72668 38.9414C9.96834 38.8824 10.2171 38.9546 10.4213 39.143Z" fill="#F55555"/>
<path d="M14.1784 37.9002C14.6487 38.2264 15.5872 40.3515 15.5872 40.3515C15.5872 40.3515 13.796 40.5852 13.3257 40.259C13.2071 40.1873 13.1002 40.0829 13.0117 39.9521C12.9231 39.8213 12.8547 39.667 12.8106 39.4984C12.7665 39.3299 12.7477 39.1506 12.7552 38.9717C12.7628 38.7927 12.7965 38.6178 12.8545 38.4575C12.9124 38.2971 12.9933 38.1549 13.0923 38.0392C13.1912 37.9236 13.3061 37.8371 13.43 37.785C13.5539 37.7328 13.6841 37.7162 13.8128 37.736C13.9414 37.7558 14.0659 37.8116 14.1784 37.9002Z" fill="#F55555"/>
<path d="M8.88762 46.1958C9.04404 45.4998 8.58621 43.0907 8.58621 43.0907C8.58621 43.0907 7.22417 44.7179 7.06774 45.4139C7.02366 45.5819 7.00467 45.7605 7.01191 45.939C7.01915 46.1175 7.05247 46.292 7.10986 46.4521C7.16725 46.6122 7.24751 46.7545 7.34578 46.8704C7.44405 46.9863 7.55829 47.0734 7.68157 47.1263C7.80485 47.1793 7.93462 47.1971 8.063 47.1786C8.19139 47.1601 8.31573 47.1056 8.42849 47.0186C8.54124 46.9316 8.64007 46.8139 8.71899 46.6724C8.79791 46.531 8.85528 46.3688 8.88762 46.1958Z" fill="#F55555"/>
<path d="M13.2685 44.6598C13.2685 43.9307 12.3099 41.8228 12.3099 41.8228C12.3099 41.8228 11.3618 43.936 11.3628 44.6677C11.3635 45.018 11.4647 45.3535 11.6442 45.6004C11.8236 45.8474 12.0665 45.9855 12.3194 45.9845C12.5724 45.9834 12.8147 45.8433 12.993 45.5948C13.1714 45.3464 13.2711 45.01 13.2704 44.6598H13.2685Z" fill="#F55555"/>
<path d="M17.3785 42.3669C17.4662 41.6485 16.7795 39.3464 16.7795 39.3464C16.7795 39.3464 15.5863 41.2113 15.4995 41.9298C15.4701 42.2668 15.5357 42.6066 15.6825 42.8785C15.8293 43.1504 16.0461 43.3336 16.2879 43.3901C16.5297 43.4465 16.7779 43.3718 16.981 43.1815C17.184 42.9913 17.3264 42.7 17.3785 42.3683V42.3669Z" fill="#F55555"/>
<path d="M22.799 26.2208C22.799 26.2208 18.8778 23.2385 17.7123 18.6701C17.2334 16.749 16.3174 15.095 15.1017 13.9563C14.5216 13.4218 13.9073 12.962 13.2666 12.5828" stroke="#535461" stroke-width="2" stroke-miterlimit="10"/>
<path d="M12.5226 9.71014C12.8936 10.2265 13.2933 12.6554 13.2933 12.6554C13.2933 12.6554 11.5421 12.0875 11.171 11.5697C11.0072 11.3178 10.9196 10.9882 10.9264 10.6493C10.9332 10.3104 11.0339 9.98806 11.2075 9.74907C11.3812 9.51009 11.6146 9.37275 11.8594 9.36551C12.1042 9.35826 12.3417 9.48165 12.5226 9.71014Z" fill="#F55555"/>
<path d="M15.694 11.0348C15.8028 11.7481 15.1856 14.0871 15.1856 14.0871C15.1856 14.0871 13.939 12.2922 13.8303 11.5777C13.798 11.4049 13.7914 11.2248 13.8107 11.0483C13.8301 10.8719 13.8751 10.7027 13.9431 10.551C14.011 10.3993 14.1004 10.2683 14.2059 10.1658C14.3115 10.0632 14.4309 9.99142 14.557 9.95461C14.6832 9.91781 14.8134 9.91678 14.9398 9.9516C15.0662 9.98642 15.1862 10.0564 15.2926 10.1572C15.3989 10.258 15.4894 10.3877 15.5586 10.5383C15.6278 10.6889 15.6742 10.8574 15.695 11.0335L15.694 11.0348Z" fill="#F55555"/>
<path d="M19.1564 15.9995C18.9904 16.6903 17.6045 18.2791 17.6045 18.2791C17.6045 18.2791 17.1829 15.8582 17.3489 15.1661C17.4287 14.8334 17.6007 14.5581 17.8271 14.401C18.0535 14.2438 18.3156 14.2176 18.556 14.3281C18.7963 14.4386 18.995 14.6768 19.1085 14.9903C19.222 15.3037 19.241 15.6668 19.1612 15.9995H19.1564Z" fill="#F55555"/>
<path d="M21.167 20.5627C21.0878 21.2825 19.9156 23.1725 19.9156 23.1725C19.9156 23.1725 19.2041 20.885 19.2832 20.1652C19.2964 19.9873 19.3355 19.815 19.3983 19.6586C19.461 19.5023 19.546 19.3653 19.6481 19.2558C19.7502 19.1463 19.8673 19.0667 19.9923 19.0217C20.1173 18.9768 20.2476 18.9674 20.3753 18.9943C20.503 19.0212 20.6254 19.0836 20.7351 19.178C20.8448 19.2723 20.9396 19.3965 21.0136 19.543C21.0876 19.6895 21.1394 19.8553 21.1658 20.0304C21.1921 20.2055 21.1926 20.3861 21.167 20.5614V20.5627Z" fill="#F55555"/>
<path d="M13.8379 16.1409C14.3644 16.1329 15.8791 14.7884 15.8791 14.7884C15.8791 14.7884 14.3425 13.4941 13.816 13.502C13.563 13.506 13.3216 13.649 13.1447 13.8996C12.9679 14.1501 12.8702 14.4877 12.8731 14.8379C12.876 15.1882 12.9793 15.5226 13.1603 15.7674C13.3412 16.0122 13.585 16.1475 13.8379 16.1435V16.1409Z" fill="#F55555"/>
<path d="M16.2377 21.4423C16.7375 21.2165 17.8926 19.3067 17.8926 19.3067C17.8926 19.3067 16.1461 18.7084 15.6463 18.9342C15.523 18.983 15.408 19.0657 15.3083 19.1773C15.2086 19.289 15.1261 19.4274 15.0659 19.5842C15.0057 19.741 14.969 19.9131 14.9579 20.09C14.9468 20.2669 14.9616 20.4452 15.0013 20.614C15.0411 20.7828 15.1051 20.9388 15.1894 21.0726C15.2738 21.2065 15.3767 21.3154 15.4921 21.3928C15.6076 21.4703 15.7331 21.5147 15.8612 21.5234C15.9893 21.5322 16.1173 21.505 16.2377 21.4437V21.4423Z" fill="#F55555"/>
<path d="M19.0801 26.1521C19.6008 26.0465 20.9724 24.4351 20.9724 24.4351C20.9724 24.4351 19.3242 23.4367 18.8044 23.5423C18.6764 23.5606 18.5524 23.6146 18.4398 23.701C18.3272 23.7874 18.2285 23.9044 18.1494 24.0451C18.0704 24.1857 18.0127 24.3471 17.9799 24.5194C17.9471 24.6917 17.9398 24.8715 17.9585 25.0478C17.9772 25.2241 18.0214 25.3934 18.0886 25.5454C18.1558 25.6974 18.2445 25.8291 18.3493 25.9324C18.4542 26.0357 18.5731 26.1085 18.6989 26.1465C18.8246 26.1845 18.9546 26.1869 19.081 26.1534L19.0801 26.1521Z" fill="#F55555"/>
<path d="M49.7833 98.5819C68.8526 98.5819 84.3113 77.1761 84.3113 50.7708C84.3113 24.3655 68.8526 2.95979 49.7833 2.95979C30.714 2.95979 15.2553 24.3655 15.2553 50.7708C15.2553 77.1761 30.714 98.5819 49.7833 98.5819Z" fill="url(#paint0_linear)"/>
<path d="M49.7833 97.7894C68.5365 97.7894 83.739 76.7385 83.739 50.7708C83.739 24.8032 68.5365 3.75224 49.7833 3.75224C31.0301 3.75224 15.8276 24.8032 15.8276 50.7708C15.8276 76.7385 31.0301 97.7894 49.7833 97.7894Z" fill="#F55555"/>
<path d="M49.7833 88.148C64.6911 88.148 76.7762 71.4137 76.7762 50.7709C76.7762 30.128 64.6911 13.3937 49.7833 13.3937C34.8755 13.3937 22.7904 30.128 22.7904 50.7709C22.7904 71.4137 34.8755 88.148 49.7833 88.148Z" fill="#DDE1EC"/>
<path opacity="0.3" d="M50.5463 19.9974H49.0202V53.0161H50.5463V19.9974Z" fill="#535461"/>
<g opacity="0.1">
<path opacity="0.1" d="M72.9609 49.9784H51.4048V52.6199H72.9609V49.9784Z" fill="black"/>
<path opacity="0.1" d="M36.1859 40.0958L35.3009 42.4358L48.8643 52.2711L49.7492 49.9311L36.1859 40.0958Z" fill="black"/>
<path opacity="0.1" d="M49.7833 55.2614C51.3636 55.2614 52.6447 53.4874 52.6447 51.2992C52.6447 49.1109 51.3636 47.3369 49.7833 47.3369C48.203 47.3369 46.9218 49.1109 46.9218 51.2992C46.9218 53.4874 48.203 55.2614 49.7833 55.2614Z" fill="black"/>
</g>
<path d="M72.9609 49.4501H51.4048V52.0916H72.9609V49.4501Z" fill="#535461"/>
<path d="M49.7555 49.4058L36.1921 39.5705L35.3072 41.9106L48.8705 51.7459L49.7555 49.4058Z" fill="#535461"/>
<path d="M49.7833 54.7331C51.3636 54.7331 52.6447 52.9591 52.6447 50.7709C52.6447 48.5826 51.3636 46.8086 49.7833 46.8086C48.203 46.8086 46.9218 48.5826 46.9218 50.7709C46.9218 52.9591 48.203 54.7331 49.7833 54.7331Z" fill="#535461"/>
<g opacity="0.1">
<path opacity="0.1" d="M24.8869 55.2614C24.8869 34.6181 36.9717 17.8842 51.8798 17.8842C56.0641 17.8791 60.1918 19.2232 63.936 21.8099C67.6801 24.3967 70.9379 28.1551 73.4512 32.7876C68.8576 21.2284 59.9872 13.3937 49.7814 13.3937C34.8733 13.3937 22.7885 30.1276 22.7885 50.7708C22.7797 58.8805 24.6844 66.772 28.2128 73.2447C26.0247 67.7357 24.8804 61.5487 24.8869 55.2614Z" fill="black"/>
</g>
<path d="M74.7235 23.2755C74.4031 22.8489 71.7057 25.6529 71.7057 25.6529C71.7057 25.6529 70.7452 25.8959 70.9741 26.8085C71.203 27.7212 69.9678 32.8325 69.9678 32.8325L69.4652 31.8591C69.5138 30.7166 69.2868 29.907 69.0655 29.4025C69.0474 29.3615 69.0293 29.3219 69.0112 29.2849L69.0989 29.2427C69.0655 28.6193 68.3454 27.6697 67.9629 27.2048C67.9629 27.1374 67.9629 27.0727 67.9629 27.004C67.9868 26.2591 68.2023 25.4733 67.9629 24.7984C67.692 24.0284 66.8994 23.6414 66.8327 22.7961C66.7926 22.2916 67.0387 21.8359 67.1474 21.3499C67.4069 20.1876 66.8679 19.0016 66.3529 18.0005C66.1784 17.6251 65.9661 17.2862 65.7224 16.9941C65.4902 16.759 65.2353 16.5705 64.9651 16.4341C64.2106 16.0114 63.439 15.7988 62.6607 15.5095C61.9138 15.2348 61.2252 15.1041 60.4669 15.4488C60.287 15.516 60.1227 15.6466 59.99 15.8278C59.8097 16.1078 59.7859 16.5067 59.6676 16.8408C59.4769 17.3784 59.0658 17.6993 58.7024 18.044C58.339 18.3888 57.9746 18.8616 57.9727 19.4559C57.9727 20.2999 58.669 20.8308 58.9017 21.6167C59.1192 22.3484 58.9017 23.1633 58.7806 23.9346C58.73 24.1839 58.725 24.4467 58.7663 24.6993C58.8143 24.8875 58.8867 25.0621 58.9799 25.2144C59.1239 25.4785 59.2785 25.7242 59.432 25.9751L59.3614 26.0134C58.0814 25.8312 57.2583 28.0817 57.2583 28.0817C57.3174 28.0989 57.3737 28.1187 57.429 28.1412L57.3747 28.2389C56.9879 28.9345 56.6718 29.7001 56.4351 30.5145L55.386 32.4613C55.386 32.4613 55.157 27.5931 55.7064 26.4982C56.2558 25.4033 55.2038 24.7336 55.2038 24.7336C55.2038 24.7336 52.9146 21.2046 52.597 21.5084C52.2794 21.8121 53.3744 25.6463 54.3349 26.2551C54.3349 26.2551 54.4302 27.4715 54.2395 28.2627C54.1241 28.7632 53.5079 34.0436 53.5079 34.0436C53.5079 34.0436 52.9595 38.4853 55.4747 36.2889C57.1085 34.8651 58.1644 32.4138 58.7024 30.8738C58.7399 30.7655 58.7752 30.662 58.8082 30.5634C58.8331 30.7267 58.85 30.8922 58.8588 31.0587L58.9542 36.1475C58.9783 37.4062 58.7799 38.654 58.3762 39.7822L57.2554 42.9296L57.3804 42.9824L57.305 43.133C56.5668 44.6373 55.3116 48.0197 57.8954 49.7433L61.3292 50.3522L61.146 51.5686C61.146 51.5686 59.7287 55.2799 59.3166 57.8355C59.0607 59.4005 58.661 60.9137 58.1272 62.3379L58.2331 62.4159C58.2111 62.4502 58.1883 62.4859 58.1663 62.5229C57.9581 62.8471 57.8205 63.2464 57.7695 63.6745L57.3041 64.5885C57.3041 64.5885 57.1209 68.3606 57.4872 69.2745C57.6875 69.7738 58.3523 70.0907 58.9179 70.2756C59.7573 70.5517 60.4345 69.3511 59.9891 68.3619L59.9833 68.3487H59.9747C59.8794 67.7345 59.5875 65.8287 59.6829 65.1049C59.7096 64.8989 59.7344 64.6942 59.7468 64.4855C59.7697 64.2113 59.8299 63.9455 59.9242 63.7023C59.9395 63.6613 59.9557 63.6217 59.9719 63.5821L60.0215 63.6111C60.175 63.7023 60.3267 63.7881 60.4707 63.8634C60.2475 64.1447 60.0892 64.7272 60.28 65.9251C60.28 65.9251 60.2981 68.9219 60.4631 69.3934C60.6281 69.8649 62.4747 70.4883 62.7952 70.0022C63.1157 69.5162 62.5891 67.8415 62.5891 67.8415L62.5729 67.8574C62.4671 66.8866 62.3364 65.1485 62.6578 64.4644C62.7875 64.1883 62.9134 63.903 63.026 63.6362L63.0956 63.4711C63.6927 63.8832 64.3241 64.1936 64.6694 63.9783C64.6694 63.9783 66.1783 59.11 66.0868 58.5025C65.9952 57.895 68.4188 51.0178 68.4188 51.0178C68.4188 51.0178 70.4762 47.848 67.962 45.6635C67.1636 44.9675 66.5818 44.4999 66.1593 44.1843L65.8054 41.622C65.6235 40.2788 65.656 38.8966 65.9008 37.5726L66.2823 35.5572L66.3138 35.3855C66.3138 35.3855 67.2743 32.6476 67.2285 31.3691C67.2249 31.2698 67.233 31.1703 67.2523 31.0745C67.2628 31.1353 67.2743 31.1987 67.2867 31.2647C67.539 32.5935 67.8715 33.8907 68.2805 35.1424C69.0102 37.4221 70.0928 37.2411 70.6861 36.9175C70.813 36.8495 70.9258 36.7388 71.0142 36.5954C71.1026 36.452 71.1639 36.2804 71.1925 36.096C71.4062 34.6775 71.9928 30.7034 72.03 29.6059C72.0632 28.7476 72.1397 27.8937 72.2589 27.0502C73.764 25.8312 75.044 23.7021 74.7235 23.2755Z" fill="url(#paint1_linear)"/>
<path d="M63.5268 62.2666C63.5268 62.2666 63.3255 62.8253 63.0499 63.4963C62.9421 63.7604 62.8219 64.0444 62.6989 64.3178C62.263 65.2832 62.6989 68.3592 62.6989 68.3592L61.7451 68.5402L60.7912 67.8798L60.6167 65.6477V64.0153L61.704 62.3314L62.1809 61.6023L63.5268 62.2666Z" fill="#F8BDC5"/>
<g opacity="0.1">
<path opacity="0.1" d="M63.5268 62.2666C63.5268 62.2666 63.3255 62.8253 63.0499 63.4962C62.6288 63.1846 62.2217 62.838 61.8309 62.4581L61.747 62.3763L61.7021 62.3314L62.179 61.6023L63.5268 62.2666Z" fill="black"/>
</g>
<path d="M68.1899 50.9848C68.1899 50.9848 65.8808 57.8012 65.9685 58.4048C66.0563 59.0084 64.6179 63.8344 64.6179 63.8344C64.2898 64.0483 63.687 63.7406 63.1185 63.3325C62.6898 63.0161 62.2757 62.6632 61.8786 62.2759L61.7946 62.194L61.7441 62.1438L65.5345 47.605L62.1809 44.1988L61.9329 43.9466L60.4335 42.4145L65.0118 43.5609C65.0118 43.5609 65.1711 43.5332 66.0133 44.1856C66.4178 44.4986 66.9796 44.9675 67.756 45.6728C70.1491 47.848 68.1899 50.9848 68.1899 50.9848Z" fill="#5E52AD"/>
<g opacity="0.03">
<path opacity="0.03" d="M68.1899 50.9848C68.1899 50.9848 65.8808 57.8012 65.9685 58.4048C66.0563 59.0084 64.6179 63.8344 64.6179 63.8344C64.2898 64.0483 63.687 63.7406 63.1185 63.3325C62.6898 63.0161 62.2757 62.6632 61.8786 62.2759L61.7946 62.194L61.7441 62.1438L65.5345 47.605L62.1809 44.1988L61.9329 43.9466L60.4335 42.4145L65.0118 43.5609C65.0118 43.5609 65.1711 43.5332 66.0133 44.1856C66.4178 44.4986 66.9796 44.9675 67.756 45.6728C70.1491 47.848 68.1899 50.9848 68.1899 50.9848Z" fill="black"/>
</g>
<path d="M61.1747 63.4725C61.1747 63.4725 60.0415 63.2308 60.4345 65.7653C60.4345 65.7653 60.4517 68.737 60.6091 69.1992C60.7664 69.6615 62.5262 70.2849 62.8305 69.8028C63.1347 69.3207 62.634 67.6619 62.634 67.6619C62.634 67.6619 61.3492 68.9589 61.0001 67.5708C60.651 66.1826 61.1747 63.4725 61.1747 63.4725Z" fill="#5D3E53"/>
<path d="M60.3897 62.9904C60.2661 63.1534 60.1655 63.3469 60.0931 63.561C60.003 63.8034 59.9458 64.0666 59.9242 64.3376C59.9128 64.5436 59.8889 64.7483 59.8641 64.9517C59.7554 65.8115 60.1722 68.3592 60.1722 68.3592L58.5164 68.7211L57.9069 67.8164L57.7762 65.8261C57.9389 65.1436 58.027 64.4314 58.0376 63.7129C58.0376 63.1938 58.2284 62.7302 58.4191 62.3921C58.5484 62.1665 58.6967 61.963 58.8607 61.7859C58.8607 61.7859 60.7388 62.5678 60.3897 62.9904Z" fill="#F8BDC5"/>
<g opacity="0.1">
<path opacity="0.1" d="M60.3897 62.9904C60.2661 63.1534 60.1655 63.3469 60.093 63.561C59.4149 63.137 58.7024 62.6021 58.4429 62.404L58.4229 62.3895C58.5522 62.1639 58.7005 61.9604 58.8645 61.7832C58.8645 61.7832 60.7388 62.5678 60.3897 62.9904Z" fill="black"/>
</g>
<path d="M65.7491 49.1754C65.7491 49.1754 64.6608 52.011 63.9627 54.3633C63.5048 55.9086 62.5586 59.5882 61.9597 61.9312L61.8719 62.2772C61.6087 63.314 61.4331 64.0153 61.4331 64.0153C61.3171 64.0164 61.2016 63.9928 61.0907 63.9453C60.9877 63.907 60.8723 63.8555 60.7493 63.7921L60.611 63.7195C60.4736 63.6455 60.3248 63.5597 60.1827 63.4698C59.4902 63.0419 58.752 62.4846 58.484 62.2812L58.3829 62.2033C58.8941 60.785 59.2757 59.2841 59.5189 57.7352C59.9109 55.202 61.2615 51.5276 61.2615 51.5276L61.436 50.3205L58.1683 49.7169C55.7065 48.0131 56.9025 44.6545 57.6055 43.1634C57.7254 42.9045 57.8549 42.6545 57.9937 42.4145L60.6081 43.2069C60.6081 43.2069 61.0201 43.3892 61.9358 43.9505L62.3564 44.2147C62.8696 44.5409 63.501 44.9609 64.2641 45.4998C66.8374 47.3013 65.7491 49.1754 65.7491 49.1754Z" fill="#5E52AD"/>
<path d="M60.156 68.1783C60.2492 68.3958 60.2939 68.6467 60.2843 68.8993C60.2748 69.1518 60.2114 69.3949 60.1023 69.5977C59.9931 69.8005 59.8431 69.9541 59.671 70.039C59.499 70.1239 59.3126 70.1364 59.1354 70.0749C58.6003 69.8913 57.966 69.577 57.7753 69.0817C57.4271 68.177 57.6007 64.4366 57.6007 64.4366L58.0585 63.5015C58.0585 63.5015 57.8191 67.6342 58.3857 67.9921C58.9523 68.35 60.1503 68.1598 60.1503 68.1598L60.156 68.1783Z" fill="#5D3E53"/>
<path d="M60.6195 15.7169C60.4455 15.7839 60.2875 15.9139 60.1617 16.0933C59.99 16.3707 59.9709 16.7669 59.8546 17.0984C59.6734 17.6267 59.2823 17.9503 58.9351 18.2871C58.5879 18.6239 58.2417 19.098 58.2398 19.6871C58.2398 20.5244 58.9074 21.0501 59.1249 21.828C59.3319 22.5544 59.1249 23.3614 59.0095 24.1261C58.9614 24.3737 58.9568 24.6337 58.9961 24.8842C59.0417 25.0701 59.1108 25.2432 59.2003 25.3953C59.6209 26.1878 60.1436 26.8904 60.425 27.7925C60.6386 28.478 60.6977 29.2347 60.754 29.9783C60.8351 31.0481 60.9162 32.1377 60.7693 33.1943C60.755 33.2575 60.755 33.3253 60.7693 33.3885C60.7943 33.4491 60.8338 33.4958 60.8809 33.5206C61.1584 33.7073 61.4604 33.8144 61.7686 33.8354C62.0768 33.8564 62.3849 33.791 62.6744 33.6429C62.9638 33.4949 63.2287 33.2673 63.453 32.9739C63.6774 32.6806 63.8566 32.3274 63.9798 31.9357C64.1706 31.3374 64.244 30.6149 64.6217 30.2266C64.6658 30.1761 64.7188 30.1429 64.7753 30.1302C64.8644 30.1336 64.9507 30.1736 65.0233 30.2451C65.5135 30.6123 66.1078 30.6228 66.6543 30.4723C66.9843 30.3812 67.322 30.2187 67.5404 29.8621C67.9706 29.1542 67.7312 28.0963 67.7598 27.1731C67.7827 26.4348 67.9877 25.6555 67.7598 24.9872C67.5022 24.2238 66.7459 23.8408 66.6829 23.0061C66.6448 22.5069 66.8794 22.0538 66.9834 21.5731C67.2304 20.4201 66.7173 19.2446 66.227 18.2527C66.0621 17.8827 65.8601 17.547 65.6271 17.2556C65.4072 17.0237 65.1643 16.8369 64.906 16.7009C64.1877 16.2822 63.4552 16.0709 62.7122 15.7856C62.0007 15.5043 61.3454 15.3735 60.6195 15.7169Z" fill="#85555C"/>
<path d="M64.2679 32.9474H61.7403V27.2761C61.8153 26.7314 61.8594 26.1794 61.8719 25.6251C61.8719 25.4389 61.8719 25.2487 61.8719 25.0572C61.848 24.381 61.7469 23.7061 61.4818 23.294C60.7845 22.2084 63.7471 22.3893 63.7471 22.3893C63.838 22.8878 63.956 23.3761 64.1 23.8501C64.3146 24.5895 64.6001 25.2857 64.9489 25.9197C65.2557 26.4838 65.6489 26.947 66.1001 27.2761C67.8399 28.4832 64.2679 32.9474 64.2679 32.9474Z" fill="#F8BDC5"/>
<g opacity="0.1">
<path opacity="0.1" d="M64.0972 23.8501C63.8405 24.3134 63.4973 24.6708 63.1046 24.8835C62.7119 25.0963 62.2846 25.1564 61.8691 25.0572C61.8452 24.381 61.7441 23.7061 61.479 23.294C60.7817 22.2084 63.7443 22.3893 63.7443 22.3893C63.8352 22.8878 63.9531 23.3761 64.0972 23.8501Z" fill="black"/>
</g>
<path d="M62.263 24.9251C63.5383 24.9251 64.5722 23.4936 64.5722 21.7276C64.5722 19.9617 63.5383 18.5301 62.263 18.5301C60.9877 18.5301 59.9538 19.9617 59.9538 21.7276C59.9538 23.4936 60.9877 24.9251 62.263 24.9251Z" fill="#F8BDC5"/>
<path d="M71.8478 27.2166C71.7344 28.0533 71.6618 28.8996 71.6303 29.7498C71.5951 30.8368 71.0361 34.7779 70.832 36.1845C70.8063 36.3649 70.7487 36.5337 70.6645 36.6758C70.5803 36.818 70.4721 36.9291 70.3494 36.9994C69.7828 37.3204 68.7527 37.5 68.0602 35.2402C67.6698 33.9967 67.353 32.7114 67.1131 31.3968C67.0282 30.9549 66.9645 30.5058 66.9223 30.0523L68.4484 28.9059C68.5921 29.092 68.7137 29.3081 68.809 29.5464C69.0198 30.047 69.2363 30.85 69.1905 31.9819L69.6674 32.9474C69.6674 32.9474 70.8435 27.8797 70.6212 26.9749C70.399 26.0702 71.3184 25.8285 71.3184 25.8285C71.3184 25.8285 73.889 23.055 74.1942 23.4763C74.4994 23.8976 73.2852 26.0095 71.8478 27.2166Z" fill="#F8BDC5"/>
<path d="M59.3443 29.6297C59.2252 30.1015 59.0883 30.5644 58.9342 31.0164C58.421 32.5445 57.4157 34.9787 55.8591 36.3866C53.4631 38.5579 53.9858 34.1545 53.9858 34.1545C53.9858 34.1545 54.5724 28.9191 54.683 28.4238C54.8576 27.6393 54.7698 26.4334 54.7698 26.4334C53.8551 25.8299 52.8097 22.0301 53.114 21.7276C53.4183 21.4252 55.5939 24.9251 55.5939 24.9251C55.5939 24.9251 56.5964 25.5855 56.0708 26.6751C55.5453 27.7648 55.7656 32.5868 55.7656 32.5868L56.7738 30.6598C56.9981 29.8558 57.2993 29.097 57.6694 28.404C57.8602 28.0434 57.9937 27.8255 57.9937 27.8255L59.3443 29.6297Z" fill="#F8BDC5"/>
<g opacity="0.1">
<path opacity="0.1" d="M68.8099 29.5464C68.4894 29.7102 67.2485 30.4036 67.1112 31.3955C67.0263 30.9536 66.9626 30.5045 66.9204 30.051L68.4465 28.9046C68.5912 29.0907 68.7139 29.3074 68.8099 29.5464Z" fill="black"/>
</g>
<g opacity="0.1">
<path opacity="0.1" d="M59.3443 29.6296C59.2252 30.1015 59.0883 30.5644 58.9342 31.0164C58.875 30.4195 58.6318 28.8927 57.6694 28.4C57.8602 28.0395 57.9937 27.8215 57.9937 27.8215L59.3443 29.6296Z" fill="black"/>
</g>
<g opacity="0.1">
<path opacity="0.1" d="M64.2679 32.9474H61.7403V27.2761C61.8154 26.7314 61.8594 26.1794 61.8719 25.6251C62.3917 26.3199 62.263 27.3963 62.263 27.3963L63.6136 31.6227L64.2679 27.8863L64.0504 27.4042L64.947 25.9276C65.2538 26.4917 65.6469 26.9549 66.0982 27.284C67.8399 28.4832 64.2679 32.9474 64.2679 32.9474Z" fill="black"/>
</g>
<g opacity="0.1">
<path opacity="0.1" d="M66.0534 44.5277C66.0534 44.5277 64.0733 44.3098 62.3555 44.2067L62.1829 44.1962C61.9387 44.183 61.7059 44.1724 61.478 44.1645C59.8107 44.109 57.925 43.302 57.6046 43.1607C57.7248 42.9027 57.8547 42.6537 57.9937 42.4145L60.6081 43.2069C60.6081 43.2069 61.0202 43.3892 61.9358 43.9505L60.4336 42.4145L65.0119 43.5609C65.0119 43.5609 65.1711 43.5332 66.0134 44.1856L66.0534 44.5277Z" fill="black"/>
</g>
<path d="M64.2679 28.1214L64.0504 27.6393L65.0176 26.0372C65.0176 26.0372 67.012 27.391 67.5347 27.0938C67.5347 27.0938 68.7985 28.5466 68.8414 29.3866C68.8414 29.3866 67.012 30.2306 67.0549 31.4998C67.0979 32.7691 66.187 35.4806 66.187 35.4806L65.8054 37.6492C65.5707 38.9635 65.5382 40.3315 65.7101 41.6643L66.0582 44.3494C66.0582 44.3494 63.3131 44.0482 61.4799 43.9875C59.6467 43.9267 57.5588 42.9626 57.5588 42.9626L58.628 39.8469C59.0136 38.7226 59.2024 37.4882 59.1793 36.2439L59.0839 31.2C59.0839 31.2 58.9971 28.6668 57.5578 28.2442C57.5578 28.2442 58.3419 26.0121 59.5608 26.1931C59.5608 26.1931 61.3368 25.1668 61.8643 25.8602C62.3917 26.5536 62.262 27.6406 62.262 27.6406L63.6126 31.867L64.2679 28.1214Z" fill="#ED677B"/>
<g opacity="0.1">
<path opacity="0.1" d="M60.5966 21.0686C60.9467 21.0686 61.2214 20.5548 61.5714 20.5812C61.7526 20.5944 61.9081 20.7542 62.0579 20.8982C62.6237 21.4408 63.2534 21.843 63.9188 22.0869C64.1772 22.182 64.451 22.2533 64.7104 22.1661C64.9699 22.0789 65.2131 21.7963 65.2427 21.4278C65.2499 21.2654 65.2344 21.1026 65.1969 20.9484C64.9032 19.5315 64.2387 18.3171 63.3331 17.5422C62.9707 17.2344 62.5281 16.9993 62.1265 17.1922C61.7641 17.3652 61.5304 17.8354 61.2681 18.2224C61.0704 18.5121 60.8459 18.7644 60.6004 18.9725C60.4097 19.1323 60.1235 19.2367 60.0138 19.5299C59.8069 20.0767 60.1321 21.0633 60.5966 21.0686Z" fill="black"/>
</g>
<path d="M60.5966 20.9484C60.9467 20.9484 61.2214 20.4346 61.5714 20.461C61.7526 20.4742 61.9081 20.634 62.0579 20.778C62.6237 21.3206 63.2534 21.7228 63.9188 21.9667C64.1772 22.0618 64.451 22.1331 64.7104 22.0459C64.9699 21.9587 65.2131 21.6761 65.2427 21.3076C65.2499 21.1452 65.2344 20.9824 65.1969 20.8282C64.9032 19.4113 64.2387 18.1969 63.3331 17.422C62.9707 17.1142 62.5281 16.8791 62.1265 17.072C61.7641 17.245 61.5304 17.7152 61.2681 18.1022C61.0704 18.3919 60.8459 18.6442 60.6004 18.8523C60.4097 19.0122 60.1235 19.1165 60.0138 19.4097C59.8069 19.9618 60.1321 20.9418 60.5966 20.9484Z" fill="#85555C"/>
<path opacity="0.05" d="M59.5408 34.7264C59.5408 34.7264 61.6754 35.8121 63.0699 34.9681L63.7671 35.0289C63.7671 35.0289 64.926 36.1541 66.1516 35.6509" fill="black"/>
<path opacity="0.05" d="M69.6483 32.917C69.6483 32.917 69.3002 34.0634 69.4738 34.4253L69.6483 32.917Z" fill="black"/>
<path opacity="0.05" d="M55.7503 32.5551C55.7503 32.5551 55.9249 33.7015 55.7503 34.0634V32.5551Z" fill="black"/>
<path d="M91.8827 58.6782C91.8827 58.6782 87.8919 64.2042 90.1448 72.4034C92.3977 80.6026 86.2838 94.238 86.2838 94.238C86.2838 94.238 86.3496 94.2248 86.4745 94.1957C94.6706 92.1921 98.7425 79.2132 94.1852 69.5704C92.4864 65.9845 91.0958 61.7793 91.8827 58.6782Z" fill="#F55555"/>
<path opacity="0.1" d="M91.8827 58.7706C91.8827 58.7706 87.8919 64.2966 90.1448 72.4958C92.3977 80.695 86.2838 94.3291 86.2838 94.3291C86.2838 94.3291 86.3496 94.3159 86.4745 94.2868C94.6706 92.2833 98.7425 79.3043 94.1852 69.6615C92.4864 66.077 91.0958 61.8717 91.8827 58.7706Z" fill="black"/>
<path d="M91.8826 58.6782C91.8826 58.6782 89.6297 65.451 91.8826 70.977C94.1355 76.503 92.2642 92.0099 86.2828 94.238" stroke="#535461" stroke-miterlimit="10"/>
<path d="M98.9905 81.0279C98.9905 81.0279 94.437 80.0241 94.0221 85.6742C93.6072 91.3244 85.2632 92.1076 85.2632 92.1076L85.4196 92.2516C92.3062 98.5119 98.8903 96.2389 97.8974 87.9261C97.5311 84.8369 97.5617 81.7331 98.9905 81.0279Z" fill="#F55555"/>
<path d="M98.9905 81.0278C98.9905 81.0278 95.4556 82.1016 95.7475 86.5525C96.0394 91.0035 90.5015 96.338 85.267 92.1089" stroke="#535461" stroke-miterlimit="10"/>
<path d="M94.9845 92.3136C94.9845 92.3136 91.3981 91.3204 90.4415 89.9957C89.4848 88.671 85.1812 86.3544 84.7033 88.0146C84.2255 89.6748 78.2479 95.2985 82.3121 96.2917C86.3763 97.2849 91.876 97.6125 93.0711 96.9521C94.2662 96.2917 94.9845 92.3136 94.9845 92.3136Z" fill="#A8A8A8"/>
<path opacity="0.2" d="M82.3121 95.6723C86.3773 96.6655 91.876 96.9931 93.0711 96.3327C93.982 95.8282 94.6144 93.4059 94.8643 92.278L94.9835 92.3123C94.9835 92.3123 94.2662 96.2851 93.0711 96.9468C91.876 97.6085 86.3763 97.2783 82.3121 96.2865C81.1389 95.9999 80.8032 95.3263 80.93 94.4744C81.0292 95.0304 81.4384 95.4583 82.3121 95.6723Z" fill="black"/>
</g>
<defs>
<linearGradient id="paint0_linear" x1="49.7833" y1="98.5819" x2="49.7833" y2="2.95979" gradientUnits="userSpaceOnUse">
<stop stop-color="#808080" stop-opacity="0.25"/>
<stop offset="0.54" stop-color="#808080" stop-opacity="0.12"/>
<stop offset="1" stop-color="#808080" stop-opacity="0.1"/>
</linearGradient>
<linearGradient id="paint1_linear" x1="16692" y1="32855" x2="16692" y2="9887.87" gradientUnits="userSpaceOnUse">
<stop stop-color="#808080" stop-opacity="0.25"/>
<stop offset="0.54" stop-color="#808080" stop-opacity="0.12"/>
<stop offset="1" stop-color="#808080" stop-opacity="0.1"/>
</linearGradient>
<clipPath id="clip0">
<rect width="99" height="102" fill="white"/>
</clipPath>
</defs>
</svg>
